<svg xmlns="http://www.w3.org/2000/svg" viewBox="0 0 500 500"><g id="freepik--background-complete--inject-9"><rect x="416.78" y="398.49" width="33.12" height="0.25" style="fill:#ebebeb"></rect><rect x="322.53" y="401.21" width="8.69" height="0.25" style="fill:#ebebeb"></rect><rect x="396.59" y="389.21" width="19.19" height="0.25" style="fill:#ebebeb"></rect><rect x="52.46" y="390.89" width="43.19" height="0.25" style="fill:#ebebeb"></rect><rect x="104.56" y="390.89" width="6.33" height="0.25" style="fill:#ebebeb"></rect><rect x="131.47" y="395.11" width="93.68" height="0.25" style="fill:#ebebeb"></rect><path d="M237,337.8H43.91a5.71,5.71,0,0,1-5.7-5.71V60.66A5.71,5.71,0,0,1,43.91,55H237a5.71,5.71,0,0,1,5.71,5.71V332.09A5.71,5.71,0,0,1,237,337.8ZM43.91,55.2a5.46,5.46,0,0,0-5.45,5.46V332.09a5.46,5.46,0,0,0,5.45,5.46H237a5.47,5.47,0,0,0,5.46-5.46V60.66A5.47,5.47,0,0,0,237,55.2Z" style="fill:#ebebeb"></path><path d="M453.31,337.8H260.21a5.72,5.72,0,0,1-5.71-5.71V60.66A5.72,5.72,0,0,1,260.21,55h193.1A5.71,5.71,0,0,1,459,60.66V332.09A5.71,5.71,0,0,1,453.31,337.8ZM260.21,55.2a5.47,5.47,0,0,0-5.46,5.46V332.09a5.47,5.47,0,0,0,5.46,5.46h193.1a5.47,5.47,0,0,0,5.46-5.46V60.66a5.47,5.47,0,0,0-5.46-5.46Z" style="fill:#ebebeb"></path><rect y="382.4" width="500" height="0.25" style="fill:#ebebeb"></rect><path d="M293.54,302.25s-93.46-28.79-153.68-21.37-102.6,21.2-102.6,21.2Z" style="fill:#ebebeb"></path><path d="M188.12,245.58,72.68,238.42c-14.86-1.09-23.91-25.88-9.38-30.23l.56-.16c-21.69-20.55,13.47-56.22,55,4.22-2.62-15.65,48.58-5.16,54.66,14.2C177.63,215.19,197,236.8,188.12,245.58Z" style="fill:#f0f0f0"></path><path d="M253.6,150.69l-54.14-18.93c-8.63-3-9-20.73.5-21.34l.37,0c-8.79-16.88,19.33-34.89,31.89,11.31,1.59-10.7,16.79.45,16.52,14.13C253.47,129.07,260.64,146.29,253.6,150.69Z" style="fill:#f0f0f0"></path><path d="M408.46,224.55l40.28-2.43s9.24-4.13,7.45-13.48-15.58-.64-15.58-.64,3.53-13.41-10.06-8.84a20.48,20.48,0,0,0-14.15,17.68S398.07,214.76,408.46,224.55Z" style="fill:#f0f0f0"></path><polygon points="316.77 185.7 320.12 187.53 316.77 189.36 314.95 192.7 313.12 189.36 309.78 187.53 313.12 185.7 314.95 182.36 316.77 185.7" style="fill:#f0f0f0"></polygon><polygon points="329.42 181.11 331.09 182.02 329.42 182.93 328.51 184.6 327.6 182.93 325.93 182.02 327.6 181.11 328.51 179.44 329.42 181.11" style="fill:#ebebeb"></polygon><polygon points="77.79 108.39 81.13 110.22 77.79 112.05 75.96 115.39 74.14 112.05 70.79 110.22 74.14 108.39 75.96 105.05 77.79 108.39" style="fill:#f0f0f0"></polygon><polygon points="90.44 103.8 92.11 104.71 90.44 105.63 89.53 107.29 88.62 105.63 86.95 104.71 88.62 103.8 89.53 102.13 90.44 103.8" style="fill:#ebebeb"></polygon><polygon points="406.87 82.68 406.17 86.42 403.39 83.81 399.65 83.11 402.26 80.34 402.96 76.6 405.73 79.21 409.48 79.91 406.87 82.68" style="fill:#f0f0f0"></polygon><polygon points="415.16 93.28 414.81 95.15 413.43 93.85 411.56 93.5 412.86 92.11 413.21 90.24 414.59 91.55 416.46 91.9 415.16 93.28" style="fill:#ebebeb"></polygon><polygon points="230.61 75.53 229.84 79.26 227.11 76.61 223.38 75.84 226.04 73.11 226.8 69.38 229.53 72.04 233.26 72.8 230.61 75.53" style="fill:#f0f0f0"></polygon><polygon points="238.72 86.27 238.34 88.13 236.97 86.81 235.11 86.43 236.44 85.06 236.82 83.2 238.18 84.53 240.04 84.91 238.72 86.27" style="fill:#ebebeb"></polygon><polygon points="169 130.78 171.07 131.92 169 133.05 167.87 135.13 166.73 133.05 164.66 131.92 166.73 130.78 167.87 128.71 169 130.78" style="fill:#f0f0f0"></polygon><polygon points="451.04 124.73 453.11 125.87 451.04 127 449.9 129.08 448.77 127 446.69 125.87 448.77 124.73 449.9 122.66 451.04 124.73" style="fill:#f0f0f0"></polygon><polygon points="140.59 87.69 142.66 88.82 140.59 89.96 139.45 92.03 138.32 89.96 136.24 88.82 138.32 87.69 139.45 85.61 140.59 87.69" style="fill:#f0f0f0"></polygon><polygon points="451.71 177.58 453.79 178.71 451.71 179.85 450.58 181.92 449.44 179.85 447.37 178.71 449.44 177.58 450.58 175.5 451.71 177.58" style="fill:#f0f0f0"></polygon><rect x="186.54" y="168.35" width="4.53" height="0.46" transform="translate(15.44 352.99) rotate(-88.53)" style="fill:#e6e6e6"></rect><polygon points="191.19 175.67 189.44 171.86 189.27 171.94 189.26 171.89 189.07 171.94 189.07 171.93 188.76 171.95 188.42 171.91 188.42 171.92 188.24 171.86 188.22 171.91 188.06 171.82 186.15 175.56 186.56 175.76 187.74 173.44 187.06 175.61 187.5 175.75 188.25 173.34 187.98 175.68 188.43 175.73 188.72 173.31 188.9 175.74 189.36 175.71 189.18 173.37 189.84 175.81 190.28 175.69 189.69 173.51 190.78 175.87 191.19 175.67" style="fill:#e6e6e6"></polygon><path d="M190.18,171a1.44,1.44,0,1,1-1.4-1.47A1.43,1.43,0,0,1,190.18,171Z" style="fill:#e0e0e0"></path><polygon points="194.68 149.12 183.13 149.19 180.89 147.66 196.91 147.57 194.68 149.12" style="fill:#e0e0e0"></polygon><polygon points="194.68 149.12 183.13 149.19 180.91 150.75 196.92 150.65 194.68 149.12" style="fill:#ebebeb"></polygon><polygon points="194.7 152.28 183.15 152.35 180.91 150.82 196.92 150.73 194.7 152.28" style="fill:#e0e0e0"></polygon><polygon points="194.7 152.28 183.15 152.35 180.93 153.9 196.94 153.81 194.7 152.28" style="fill:#ebebeb"></polygon><polygon points="194.72 155.44 183.17 155.51 180.93 153.98 196.94 153.88 194.72 155.44" style="fill:#e0e0e0"></polygon><polygon points="194.72 155.44 183.17 155.51 180.94 157.06 196.96 156.97 194.72 155.44" style="fill:#ebebeb"></polygon><polygon points="194.74 158.6 183.19 158.67 180.94 157.14 196.96 157.04 194.74 158.6" style="fill:#e0e0e0"></polygon><polygon points="194.74 158.6 183.19 158.67 180.96 160.22 196.98 160.13 194.74 158.6" style="fill:#ebebeb"></polygon><polygon points="194.75 161.76 183.2 161.83 180.96 160.3 196.98 160.2 194.75 161.76" style="fill:#e0e0e0"></polygon><polygon points="194.75 161.76 183.2 161.83 180.98 163.38 197 163.29 194.75 161.76" style="fill:#ebebeb"></polygon><polygon points="194.77 164.92 183.22 164.99 180.98 163.46 197 163.36 194.77 164.92" style="fill:#e0e0e0"></polygon><polygon points="194.77 164.92 183.22 164.99 181 166.54 197.01 166.45 194.77 164.92" style="fill:#ebebeb"></polygon><polygon points="189.34 142.68 183.16 148.35 183.46 148.69 189.32 143.32 194.43 148.65 194.76 148.34 189.34 142.68" style="fill:#e0e0e0"></polygon><rect x="423.09" y="160.39" width="5.59" height="0.56" transform="translate(254.3 582.27) rotate(-88.52)" style="fill:#e6e6e6"></rect><polygon points="428.83 169.42 426.67 164.72 426.46 164.81 426.44 164.76 426.22 164.82 426.22 164.8 425.83 164.83 425.42 164.78 425.42 164.79 425.19 164.72 425.18 164.77 424.97 164.67 422.62 169.28 423.12 169.53 424.58 166.67 423.74 169.34 424.28 169.51 425.21 166.54 424.87 169.42 425.43 169.49 425.78 166.5 426.01 169.5 426.57 169.46 426.35 166.57 427.16 169.58 427.7 169.44 426.98 166.75 428.32 169.66 428.83 169.42" style="fill:#e6e6e6"></polygon><path d="M427.58,163.65a1.75,1.75,0,0,1-1.81,1.72,1.77,1.77,0,1,1,1.81-1.72Z" style="fill:#e0e0e0"></path><polygon points="433.13 136.68 418.89 136.76 416.13 134.87 435.88 134.76 433.13 136.68" style="fill:#e0e0e0"></polygon><polygon points="433.13 136.68 418.89 136.76 416.15 138.68 435.9 138.56 433.13 136.68" style="fill:#ebebeb"></polygon><polygon points="433.16 140.57 418.91 140.65 416.15 138.77 435.9 138.65 433.16 140.57" style="fill:#e0e0e0"></polygon><polygon points="433.16 140.57 418.91 140.65 416.17 142.57 435.92 142.46 433.16 140.57" style="fill:#ebebeb"></polygon><polygon points="433.18 144.47 418.94 144.55 416.17 142.66 435.92 142.55 433.18 144.47" style="fill:#e0e0e0"></polygon><polygon points="433.18 144.47 418.94 144.55 416.19 146.47 435.94 146.35 433.18 144.47" style="fill:#ebebeb"></polygon><polygon points="433.2 148.36 418.96 148.45 416.19 146.56 435.94 146.44 433.2 148.36" style="fill:#e0e0e0"></polygon><polygon points="433.2 148.36 418.96 148.45 416.22 150.37 435.97 150.25 433.2 148.36" style="fill:#ebebeb"></polygon><polygon points="433.23 152.26 418.98 152.34 416.22 150.46 435.97 150.34 433.23 152.26" style="fill:#e0e0e0"></polygon><polygon points="433.23 152.26 418.98 152.34 416.24 154.26 435.99 154.15 433.23 152.26" style="fill:#ebebeb"></polygon><polygon points="433.25 156.16 419 156.24 416.24 154.35 435.99 154.24 433.25 156.16" style="fill:#e0e0e0"></polygon><polygon points="433.25 156.16 419 156.24 416.26 158.16 436.01 158.04 433.25 156.16" style="fill:#ebebeb"></polygon><polygon points="426.55 128.73 418.92 135.73 419.3 136.14 426.53 129.52 432.83 136.1 433.24 135.71 426.55 128.73" style="fill:#e0e0e0"></polygon></g><g id="freepik--Shadow--inject-9"><ellipse id="freepik--path--inject-9" cx="250" cy="415.69" rx="193.89" ry="11.32" style="fill:#f5f5f5"></ellipse></g><g id="freepik--Palace--inject-9"><path d="M37.26,302.08H459c.08,9.47-109.15,33.61-216.45,33.78C139,336,37.26,312.56,37.26,303.1Z" style="fill:#407BFF;opacity:0.8"></path><path d="M37.26,302.08H459c.08,9.47-109.15,33.61-216.45,33.78C139,336,37.26,312.56,37.26,303.1Z" style="fill:#fff;opacity:0.4"></path><path d="M365.77,302.08s63.94-21.24,80.35-14.5c13.94,5.73,12.9,14.67,12.9,14.67Z" style="fill:#407BFF"></path><path d="M365.77,302.08s63.94-21.24,80.35-14.5c13.94,5.73,12.9,14.67,12.9,14.67Z" style="fill:#fff;opacity:0.8"></path><path d="M444.06,246.88l-.55.81a14.89,14.89,0,0,1-12.13,6.49h-.1a14.87,14.87,0,0,1-12.46-6.81l-.32-.49,4.73,2.63c1.74,1,8.06-7.06,8.06-7.06s6.3,8,8,7.06Z" style="fill:#407BFF"></path><path d="M453,260.16l-.9,1.32a24.41,24.41,0,0,1-19.88,10.64h-.16A24.37,24.37,0,0,1,411.67,261l-.52-.79,7.75,4.31c1.42.8,4.7-2.07,7.63-5.14h11.14c2.92,3.07,6.2,5.94,7.62,5.14Z" style="fill:#407BFF"></path><polygon points="430.89 242.45 430.47 240.98 430.47 239.37 432.09 239.37 432.09 240.91 431.77 242.45 430.89 242.45" style="fill:#407BFF"></polygon><path d="M425.15,251.9v12.9h12.9V251.9Zm10.6,10.6h-8.3v-8.3h8.3Z" style="fill:#407BFF"></path><path d="M420.88,264.09v13.74h5.42v-1.22h10.17v1.22h5.76V264.09Zm19.05,11.44H423.18v-9.14h16.75Z" style="fill:#407BFF"></path><path d="M445.42,275.23H417.68l0,12.47h27.73Zm-8.95,11.08H426.3v-9.7h10.17Z" style="fill:#407BFF"></path><g style="opacity:0.7000000000000001"><path d="M444.06,246.88l-.55.81a14.89,14.89,0,0,1-12.13,6.49h-.1a14.87,14.87,0,0,1-12.46-6.81l-.32-.49,4.73,2.63c1.74,1,8.06-7.06,8.06-7.06s6.3,8,8,7.06Z" style="fill:#fff"></path><path d="M453,260.16l-.9,1.32a24.41,24.41,0,0,1-19.88,10.64h-.16A24.37,24.37,0,0,1,411.67,261l-.52-.79,7.75,4.31c1.42.8,4.7-2.07,7.63-5.14h11.14c2.92,3.07,6.2,5.94,7.62,5.14Z" style="fill:#fff"></path><polygon points="430.89 242.45 430.47 240.98 430.47 239.37 432.09 239.37 432.09 240.91 431.77 242.45 430.89 242.45" style="fill:#fff"></polygon><path d="M425.15,251.9v12.9h12.9V251.9Zm10.6,10.6h-8.3v-8.3h8.3Z" style="fill:#fff"></path><path d="M420.88,264.09v13.74h5.42v-1.22h10.17v1.22h5.76V264.09Zm19.05,11.44H423.18v-9.14h16.75Z" style="fill:#fff"></path><path d="M445.42,275.23H417.68l0,12.47h27.73Zm-8.95,11.08H426.3v-9.7h10.17Z" style="fill:#fff"></path></g><path d="M364.87,302.13s.78-20.94-24.17-21.75c-24.95.81-24.16,21.75-24.16,21.75h-23c2.9-14,12.28-22.29,21.93-27.18a56,56,0,0,1,50.45,0c9.65,4.89,19,13.17,21.94,27.18Z" style="fill:#407BFF"></path><polygon points="293.54 302.25 294.02 280.5 295.24 280.5 295.72 302.25 293.54 302.25" style="fill:#407BFF"></polygon><path d="M295.9,279.92a1.27,1.27,0,1,1-1.27-1.27A1.27,1.27,0,0,1,295.9,279.92Z" style="fill:#407BFF"></path><polygon points="311.07 287.62 311.58 265.88 312.73 265.88 313.25 287.62 311.07 287.62" style="fill:#407BFF"></polygon><circle cx="312.16" cy="265.24" r="1.26" style="fill:#407BFF"></circle><polygon points="339.76 280.08 340.31 258.33 341.39 258.33 341.94 280.08 339.76 280.08" style="fill:#407BFF"></polygon><circle cx="340.7" cy="257.84" r="1.26" style="fill:#407BFF"></circle><polygon points="369.41 287.71 369.99 265.96 371.01 265.96 371.59 287.71 369.41 287.71" style="fill:#407BFF"></polygon><circle cx="370.5" cy="265.24" r="1.26" style="fill:#407BFF"></circle><polygon points="385.68 302.25 386.3 280.5 387.25 280.5 387.86 302.25 385.68 302.25" style="fill:#407BFF"></polygon><path d="M388,280.5a1.27,1.27,0,1,1-1.27-1.26A1.26,1.26,0,0,1,388,280.5Z" style="fill:#407BFF"></path><path d="M387.48,288.48h0c-.4-.5-.86-1-1.35-1.59A71.71,71.71,0,0,0,371.22,274c-.46-.31-.93-.6-1.42-.9a55.81,55.81,0,0,0-28.24-8.36h-1.41a56.88,56.88,0,0,0-27.27,7.31l-1.46.84a70,70,0,0,0-16.06,13.15c-.56.63-1.06,1.2-1.5,1.73l0-1.29c.44-.51.92-1.05,1.45-1.62A70.35,70.35,0,0,1,311.44,272c.46-.27.93-.54,1.41-.8a57.56,57.56,0,0,1,27.32-7.22h1.36a56.55,56.55,0,0,1,28.3,8.25c.46.27.92.55,1.37.84a72.78,72.78,0,0,1,14.95,12.66l1.29,1.48Z" style="fill:#407BFF"></path><g style="opacity:0.6000000000000001"><path d="M364.87,302.13s.78-20.94-24.17-21.75c-24.95.81-24.16,21.75-24.16,21.75h-23c2.9-14,12.28-22.29,21.93-27.18a56,56,0,0,1,50.45,0c9.65,4.89,19,13.17,21.94,27.18Z" style="fill:#fff"></path><polygon points="293.54 302.25 294.02 280.5 295.24 280.5 295.72 302.25 293.54 302.25" style="fill:#fff"></polygon><path d="M295.9,279.92a1.27,1.27,0,1,1-1.27-1.27A1.27,1.27,0,0,1,295.9,279.92Z" style="fill:#fff"></path><polygon points="311.07 287.62 311.58 265.88 312.73 265.88 313.25 287.62 311.07 287.62" style="fill:#fff"></polygon><circle cx="312.16" cy="265.24" r="1.26" style="fill:#fff"></circle><polygon points="339.76 280.08 340.31 258.33 341.39 258.33 341.94 280.08 339.76 280.08" style="fill:#fff"></polygon><circle cx="340.7" cy="257.84" r="1.26" style="fill:#fff"></circle><polygon points="369.41 287.71 369.99 265.96 371.01 265.96 371.59 287.71 369.41 287.71" style="fill:#fff"></polygon><circle cx="370.5" cy="265.24" r="1.26" style="fill:#fff"></circle><polygon points="385.68 302.25 386.3 280.5 387.25 280.5 387.86 302.25 385.68 302.25" style="fill:#fff"></polygon><path d="M388,280.5a1.27,1.27,0,1,1-1.27-1.26A1.26,1.26,0,0,1,388,280.5Z" style="fill:#fff"></path><path d="M387.48,288.48h0c-.4-.5-.86-1-1.35-1.59A71.71,71.71,0,0,0,371.22,274c-.46-.31-.93-.6-1.42-.9a55.81,55.81,0,0,0-28.24-8.36h-1.41a56.88,56.88,0,0,0-27.27,7.31l-1.46.84a70,70,0,0,0-16.06,13.15c-.56.63-1.06,1.2-1.5,1.73l0-1.29c.44-.51.92-1.05,1.45-1.62A70.35,70.35,0,0,1,311.44,272c.46-.27.93-.54,1.41-.8a57.56,57.56,0,0,1,27.32-7.22h1.36a56.55,56.55,0,0,1,28.3,8.25c.46.27.92.55,1.37.84a72.78,72.78,0,0,1,14.95,12.66l1.29,1.48Z" style="fill:#fff"></path></g></g><g id="freepik--Food--inject-9"><path d="M413.92,412.59c0,4-11.3,7.21-25.25,7.21s-25.25-3.23-25.25-7.21,11.31-7.21,25.25-7.21S413.92,408.61,413.92,412.59Z" style="fill:#263238"></path><ellipse cx="388.67" cy="411.39" rx="25.25" ry="6.01" style="fill:#fff;opacity:0.30000000000000004"></ellipse><path d="M394.84,356.46l-.26,3.49v.13l-3.37,45.33h0l-.45,6h-4.16l-.45-6h0l-3.37-45.33V360l-.26-3.49c2,0,4.09,0,6.17,0S392.81,356.48,394.84,356.46Z" style="fill:#263238"></path><path d="M457.93,348.39c-4.36,6.19-30.66,11-63.35,11.56-1.95,0-3.92,0-5.91,0s-4,0-5.91,0c-32.7-.53-59-5.37-63.35-11.56a7.27,7.27,0,0,1,1.85-1.74c7.59,5.31,31.8,9.31,61.24,9.81,2,0,4.09,0,6.17,0s4.14,0,6.17,0c29.43-.5,53.62-4.5,61.23-9.81A7.16,7.16,0,0,1,457.93,348.39Z" style="fill:#407BFF"></path><path d="M458.57,346.72c0,7-28.15,12.78-64,13.36-1.94,0-3.91,0-5.9,0s-3.95,0-5.9,0c-35.84-.57-64-6.35-64-13.36a.66.66,0,0,1,0-.14,3.12,3.12,0,0,1,.63-1.68,7.32,7.32,0,0,0,1.76,1.68l.09.07c7.59,5.31,31.8,9.31,61.24,9.81,2,0,4.09,0,6.17,0s4.14,0,6.17,0c29.43-.5,53.62-4.5,61.23-9.81l.1-.07a7.31,7.31,0,0,0,1.76-1.68,3,3,0,0,1,.63,1.68A.66.66,0,0,1,458.57,346.72Z" style="fill:#407BFF"></path><path d="M458.57,346.72c0,7-28.15,12.78-64,13.36-1.94,0-3.91,0-5.9,0s-3.95,0-5.9,0c-35.84-.57-64-6.35-64-13.36a.66.66,0,0,1,0-.14,3.12,3.12,0,0,1,.63-1.68,7.32,7.32,0,0,0,1.76,1.68l.09.07c7.59,5.31,31.8,9.31,61.24,9.81,2,0,4.09,0,6.17,0s4.14,0,6.17,0c29.43-.5,53.62-4.5,61.23-9.81l.1-.07a7.31,7.31,0,0,0,1.76-1.68,3,3,0,0,1,.63,1.68A.66.66,0,0,1,458.57,346.72Z" style="fill:#263238"></path><path d="M458.57,346.45a.53.53,0,0,1,0,.13,3,3,0,0,0-.63-1.68,7.31,7.31,0,0,1-1.76,1.68l-.1.07c-7.61,5.31-31.8,9.31-61.23,9.81-2,0-4.1,0-6.17,0s-4.14,0-6.17,0c-29.44-.5-53.65-4.5-61.24-9.81l-.09-.07a7.32,7.32,0,0,1-1.76-1.68,3.12,3.12,0,0,0-.63,1.68.53.53,0,0,1,0-.13c0-7.41,31.29-13.4,69.9-13.4S458.57,339,458.57,346.45Z" style="fill:#407BFF"></path><path d="M458.57,346.45a.53.53,0,0,1,0,.13,3,3,0,0,0-.63-1.68,7.31,7.31,0,0,1-1.76,1.68l-.1.07c-7.61,5.31-31.8,9.31-61.23,9.81-2,0-4.1,0-6.17,0s-4.14,0-6.17,0c-29.44-.5-53.65-4.5-61.24-9.81l-.09-.07a7.32,7.32,0,0,1-1.76-1.68,3.12,3.12,0,0,0-.63,1.68.53.53,0,0,1,0-.13c0-7.41,31.29-13.4,69.9-13.4S458.57,339,458.57,346.45Z" style="fill:#fff;opacity:0.7000000000000001"></path><ellipse cx="386.4" cy="340.01" rx="15.86" ry="5.3" style="fill:#407BFF"></ellipse><ellipse cx="386.4" cy="340.01" rx="15.86" ry="5.3" style="fill:#fff;opacity:0.9"></ellipse><path d="M373.53,338.87c-5.71-.63-7.23-3.27-7.64-4.79a4.13,4.13,0,0,1,1.13-4.25c3.86-2.81,9.26,2.25,9.49,2.46l-1,1s-4.76-4.45-7.65-2.34a2.77,2.77,0,0,0-.58,2.71c.31,1.16,1.55,3.19,6.4,3.73Z" style="fill:#407BFF"></path><path d="M402.32,330.85a10.16,10.16,0,0,1-1.42,6.45c-1.66,2.58-3.72,2.71-4.1,2.71h-.06v0c2.29-1.06,3.67-2.47,3.67-4a4.1,4.1,0,0,0-.42-1.68,7.66,7.66,0,0,0,.75-3.55l0-.15a2.26,2.26,0,0,1,2.33-1.91l.23,1.51C402.51,330.19,402.35,330.69,402.32,330.85Z" style="fill:#407BFF"></path><g style="opacity:0.30000000000000004"><path d="M402.32,330.85a10.16,10.16,0,0,1-1.42,6.45c-1.66,2.58-3.72,2.71-4.1,2.71h-.06v0c2.29-1.06,3.67-2.47,3.67-4a4.1,4.1,0,0,0-.42-1.68,7.66,7.66,0,0,0,.75-3.55l0-.15a2.26,2.26,0,0,1,2.33-1.91l.23,1.51C402.51,330.19,402.35,330.69,402.32,330.85Z" style="fill:#fff"></path></g><g style="opacity:0.30000000000000004"><path d="M373.53,338.87c-5.71-.63-7.23-3.27-7.64-4.79a4.13,4.13,0,0,1,1.13-4.25c3.86-2.81,9.26,2.25,9.49,2.46l-1,1s-4.76-4.45-7.65-2.34a2.77,2.77,0,0,0-.58,2.71c.31,1.16,1.55,3.19,6.4,3.73Z" style="fill:#fff"></path></g><path d="M393.57,328.16h-15a16.62,16.62,0,0,1,6-1.84,14.19,14.19,0,0,1,1.47-.07,14.66,14.66,0,0,1,2.11.15A16.86,16.86,0,0,1,393.57,328.16Z" style="fill:#407BFF"></path><path d="M400.42,336c0,1.55-1.39,3-3.67,4a26.18,26.18,0,0,1-10.67,2c-5.4,0-10.11-1.25-12.55-3.11h0a4.92,4.92,0,0,1-1.5-1.71,2.7,2.7,0,0,1-.28-1.2,6.84,6.84,0,0,1,2-4q.47-.52,1-1.05a17.43,17.43,0,0,1,3.85-2.74h15a14.72,14.72,0,0,1,6.43,6.13A4.1,4.1,0,0,1,400.42,336Z" style="fill:#407BFF"></path><path d="M400,334.29a14.65,14.65,0,0,0-6.43-6.12h-15c-4.11,2.15-6.86,5.63-6.86,7.8,0,3.32,6.42,6,14.34,6a26.15,26.15,0,0,0,10.67-2c2.29-1.06,3.67-2.47,3.67-4A4.1,4.1,0,0,0,400,334.29Z" style="fill:#fff;opacity:0.30000000000000004"></path><path d="M388.2,326.25a.76.76,0,0,1,0,.15,14.66,14.66,0,0,0-2.11-.15,14.19,14.19,0,0,0-1.47.07.2.2,0,0,1,0-.07,1.8,1.8,0,1,1,3.6,0Z" style="fill:#407BFF"></path><path d="M353.32,346.37h0a5.66,5.66,0,0,1-5.36,0h0l-2.73-5.88h10.82Z" style="fill:#407BFF"></path><g style="opacity:0.9"><path d="M353.32,346.37h0a5.66,5.66,0,0,1-5.36,0h0l-2.73-5.88h10.82Z" style="fill:#fff"></path></g><ellipse cx="350.64" cy="340.49" rx="5.41" ry="1.2" style="fill:#407BFF"></ellipse><ellipse cx="350.64" cy="340.49" rx="5.41" ry="1.2" style="fill:#fff;opacity:0.30000000000000004"></ellipse><path d="M364.67,345.57h0a5.66,5.66,0,0,1-5.36,0h0l-2.73-5.89H367.4Z" style="fill:#407BFF"></path><g style="opacity:0.9"><path d="M364.67,345.57h0a5.66,5.66,0,0,1-5.36,0h0l-2.73-5.89H367.4Z" style="fill:#fff"></path></g><path d="M367.4,339.68c0,.66-2.42,1.2-5.41,1.2s-5.41-.54-5.41-1.2,2.42-1.2,5.41-1.2S367.4,339,367.4,339.68Z" style="fill:#407BFF"></path><path d="M367.4,339.68c0,.66-2.42,1.2-5.41,1.2s-5.41-.54-5.41-1.2,2.42-1.2,5.41-1.2S367.4,339,367.4,339.68Z" style="fill:#fff;opacity:0.30000000000000004"></path><path d="M361.13,350.37h0a5.71,5.71,0,0,1-5.36,0h0L353,344.48h10.82Z" style="fill:#407BFF"></path><g style="opacity:0.9"><path d="M361.13,350.37h0a5.71,5.71,0,0,1-5.36,0h0L353,344.48h10.82Z" style="fill:#fff"></path></g><path d="M363.86,344.48c0,.66-2.42,1.2-5.41,1.2s-5.41-.54-5.41-1.2,2.42-1.2,5.41-1.2S363.86,343.82,363.86,344.48Z" style="fill:#407BFF"></path><path d="M363.86,344.48c0,.66-2.42,1.2-5.41,1.2s-5.41-.54-5.41-1.2,2.42-1.2,5.41-1.2S363.86,343.82,363.86,344.48Z" style="fill:#fff;opacity:0.30000000000000004"></path><path d="M446.64,345c0,4.91-13.95,8-27.78,7.14-11.12-.7-18.65-3.84-18.65-7.14s7.53-6.43,18.65-7.13C432.69,337,446.64,340.14,446.64,345Z" style="fill:#407BFF"></path><path d="M446.64,345c0,4.91-13.95,8-27.78,7.14-11.12-.7-18.65-3.84-18.65-7.14s7.53-6.43,18.65-7.13C432.69,337,446.64,340.14,446.64,345Z" style="fill:#fff;opacity:0.9"></path><path d="M438,344.93a1.68,1.68,0,0,1-.07.44c-.75-2.8-8.18-4.67-16.18-4.32-7,.31-12.14,2.26-12.6,4.47a2.09,2.09,0,0,1,0-.34c0-2.35,5.3-4.52,12.64-4.89C430.15,339.87,438,341.92,438,344.93Z" style="fill:#407BFF;opacity:0.2"></path><path d="M420,340.76v.07h0v.07a.83.83,0,0,1,0,.15.61.61,0,0,1-.07.14l-.11.14-.07.07h0a3.09,3.09,0,0,1-1.94.56,3.57,3.57,0,0,1-3.87,0,3.09,3.09,0,0,1-1.94-.56h0a1.13,1.13,0,0,1-.22-.28.36.36,0,0,1,0-.09.29.29,0,0,1,0-.09v-.22a.29.29,0,0,1,0-.09.36.36,0,0,1,0-.09,1.08,1.08,0,0,1,.22-.28.79.79,0,0,1-.28-.45v-.24h0a.8.8,0,0,1,.28-.44,3.14,3.14,0,0,1,1.95-.57,3.62,3.62,0,0,1,3.87,0,3.14,3.14,0,0,1,2,.57.8.8,0,0,1,.28.44.49.49,0,0,1,0,.12.78.78,0,0,1-.29.57l.07.07a1.34,1.34,0,0,1,.11.14.61.61,0,0,1,.07.14A.83.83,0,0,1,420,340.76Z" style="fill:#407BFF"></path><path d="M420,340.76v.07h0v.07a.83.83,0,0,1,0,.15.61.61,0,0,1-.07.14l-.11.14-.07.07h0a3,3,0,0,1-1.76.56h-.18l-.14.11a3.73,3.73,0,0,1-3.59,0l-.14-.11h-.18a3,3,0,0,1-1.76-.56h0a1.13,1.13,0,0,1-.22-.28.36.36,0,0,1,0-.09.29.29,0,0,1,0-.09v-.22a.29.29,0,0,1,0-.09.36.36,0,0,1,0-.09,1.08,1.08,0,0,1,.22-.28.79.79,0,0,1-.28-.45v-.24h0a.8.8,0,0,1,.28-.44,3.14,3.14,0,0,1,1.95-.57,3.62,3.62,0,0,1,3.87,0,3.14,3.14,0,0,1,2,.57.8.8,0,0,1,.28.44.49.49,0,0,1,0,.12.78.78,0,0,1-.29.57l.07.07a1.34,1.34,0,0,1,.11.14.61.61,0,0,1,.07.14A.83.83,0,0,1,420,340.76Z" style="fill:#fff;opacity:0.2"></path><path d="M411.61,339.81a.45.45,0,0,1,0-.23Z" style="fill:#407BFF"></path><path d="M411.63,341a.24.24,0,0,1,0-.08v0a.43.43,0,0,1,0-.16v0h0v.22A.29.29,0,0,0,411.63,341Z" style="fill:#407BFF"></path><path d="M411.63,340.63a.29.29,0,0,0,0,.09v.22h0v0a.43.43,0,0,1,0-.16v0a0,0,0,0,0,0,0A.24.24,0,0,1,411.63,340.63Z" style="fill:#407BFF"></path><path d="M420,340.83V342a.73.73,0,0,1-.29.57,2.92,2.92,0,0,1-1.77.56h-.18a.71.71,0,0,1-.14.1,3.26,3.26,0,0,1-1.79.46,3.36,3.36,0,0,1-1.8-.45l-.14-.11h-.18a2.92,2.92,0,0,1-1.77-.56.7.7,0,0,1-.28-.68V341a.24.24,0,0,0,0,.08.36.36,0,0,0,0,.09,1.13,1.13,0,0,0,.22.28h0l.07.06h0a.57.57,0,0,0,.16.11l.08,0,.05,0,0,0,.11,0,.21.08.22.06h0l.22,0s0,0,0,0l.11,0h.14l.22,0h.22l.14.11.07.05.19.1.09,0,.09,0,.15.05.18.06.24,0,.25,0,.23,0h.61l.23,0,.12,0,.13,0,.22,0h0l.22-.07.1,0h0l.06,0h0a1.71,1.71,0,0,0,.27-.14l.08-.05.14-.11h.22l.19,0h.16l.11,0h.09a.32.32,0,0,0,.14,0h.1a1.4,1.4,0,0,0,.29-.09l.08,0h0l.11-.05.06,0a1.69,1.69,0,0,0,.37-.24h0l.07-.07.11-.14a.61.61,0,0,0,.07-.14.83.83,0,0,0,0-.15Z" style="fill:#407BFF"></path><path d="M411.61,340.94a.29.29,0,0,0,0,.09.24.24,0,0,1,0-.08Z" style="fill:#407BFF"></path><path d="M411.61,339.81a.79.79,0,0,0,.28.45,1.08,1.08,0,0,0-.22.28.36.36,0,0,0,0,.09.29.29,0,0,0,0,.09Z" style="fill:#407BFF"></path><path d="M420,339.57v.12a.49.49,0,0,0,0-.12Z" style="fill:#407BFF"></path><path d="M414,342.07v1.14l-.14-.11h-.18V342h.18Z" style="opacity:0.2"></path><path d="M417.89,342v1.13h-.18a.71.71,0,0,1-.14.1v-1.13l.14-.11Z" style="opacity:0.2"></path><path d="M411.61,339.81a.79.79,0,0,0,.28.45,1.08,1.08,0,0,0-.22.28.36.36,0,0,0,0,.09.29.29,0,0,0,0,.09Z" style="opacity:0.2"></path><path d="M419.66,340.26a.78.78,0,0,0,.29-.57v1.07a.83.83,0,0,0,0-.15.61.61,0,0,0-.07-.14,1.34,1.34,0,0,0-.11-.14Z" style="fill:#407BFF"></path><path d="M420,339.81a.81.81,0,0,1-.29.45,1.14,1.14,0,0,1,.23.28l0,.09,0,.09Z" style="opacity:0.2"></path><path d="M419.51,340.26c0,.83-1.66,1.5-3.7,1.5s-3.71-.67-3.71-1.5a.49.49,0,0,1,0-.12c.15.78,1.75,1.39,3.7,1.39s3.54-.61,3.69-1.39A.49.49,0,0,1,419.51,340.26Z" style="opacity:0.2"></path><path d="M419.15,340a.37.37,0,0,1,0,.11c-.13-.7-1.59-1.26-3.36-1.26s-3.23.56-3.37,1.26a.37.37,0,0,1,0-.11c0-.75,1.51-1.36,3.38-1.36S419.15,339.28,419.15,340Z" style="opacity:0.2"></path><path d="M436,344.67s0,.05,0,.08h0s0,.05,0,.07a.42.42,0,0,1,0,.15l-.07.14-.11.14a.23.23,0,0,0-.07.07h0a3.09,3.09,0,0,1-1.94.56,3.57,3.57,0,0,1-3.87,0,3.09,3.09,0,0,1-1.94-.56h0a1.35,1.35,0,0,1-.22-.28.36.36,0,0,0,0-.09.29.29,0,0,1,0-.09v-.22a.29.29,0,0,1,0-.09.36.36,0,0,0,0-.09.94.94,0,0,1,.22-.28.89.89,0,0,1-.28-.45v-.24h0a.87.87,0,0,1,.28-.44,1460.69,1460.69,0,0,0,3.89-1.14,3,3,0,0,1,1.93.57,3.08,3.08,0,0,1,2,.57.8.8,0,0,1,.28.44.5.5,0,0,1,0,.12.81.81,0,0,1-.3.57l.07.07.11.13a.51.51,0,0,1,.07.15A.43.43,0,0,1,436,344.67Z" style="fill:#407BFF"></path><path d="M436,344.67s0,.05,0,.08h0s0,.05,0,.07a.42.42,0,0,1,0,.15l-.07.14-.11.14a.23.23,0,0,0-.07.07h0a3,3,0,0,1-1.76.56h-.18l-.13.11a3.32,3.32,0,0,1-1.8.46A3.27,3.27,0,0,1,430,346l-.14-.11h-.18a3,3,0,0,1-1.76-.56h0a1.35,1.35,0,0,1-.22-.28.36.36,0,0,0,0-.09.29.29,0,0,1,0-.09v-.22a.29.29,0,0,1,0-.09.36.36,0,0,0,0-.09.94.94,0,0,1,.22-.28.89.89,0,0,1-.28-.45v-.24h0a.87.87,0,0,1,.28-.44,1460.69,1460.69,0,0,0,3.89-1.14,3,3,0,0,1,1.93.57,3.08,3.08,0,0,1,2,.57.8.8,0,0,1,.28.44.5.5,0,0,1,0,.12.81.81,0,0,1-.3.57l.07.07.11.13a.51.51,0,0,1,.07.15A.43.43,0,0,1,436,344.67Z" style="fill:#fff;opacity:0.2"></path><path d="M427.67,343.73a.45.45,0,0,1,0-.23Z" style="fill:#407BFF"></path><path d="M427.69,345a.24.24,0,0,1,0-.08v0a.43.43,0,0,1,0-.16v0h0v.22A.29.29,0,0,0,427.69,345Z" style="fill:#407BFF"></path><path d="M427.69,344.55a.29.29,0,0,0,0,.09v.22h0v0a.43.43,0,0,1,0-.16v0A.24.24,0,0,1,427.69,344.55Z" style="fill:#407BFF"></path><path d="M436,344.75v1.13a.77.77,0,0,1-.3.57A3,3,0,0,1,434,347h-.18l-.13.1a3.32,3.32,0,0,1-1.8.46,3.27,3.27,0,0,1-1.8-.46l-.14-.1h-.18a3,3,0,0,1-1.77-.56.7.7,0,0,1-.28-.68v-.9a.24.24,0,0,0,0,.08l0,.09a1.35,1.35,0,0,0,.22.28h0l.07.06h0l.16.11.08,0,.05,0,0,0,.11,0,.21.08.22.06H429l.21,0h.71l.14.11.08.05a1,1,0,0,0,.18.1l.09,0,.1,0,.14,0,.18.05.24.06.25,0,.23,0h.61l.23,0,.13,0,.12,0,.22-.05h0l.22-.06.1,0,.05,0,0,0h0l.26-.14.09-.05.13-.11h.77a.32.32,0,0,0,.14,0h.1a1.4,1.4,0,0,0,.29-.09l.08,0h0l.11-.05.06,0a1.69,1.69,0,0,0,.37-.24h0a.23.23,0,0,1,.07-.07l.11-.14L436,345a.42.42,0,0,0,0-.15S436,344.77,436,344.75Z" style="fill:#407BFF"></path><path d="M427.67,344.86a.29.29,0,0,0,0,.09.24.24,0,0,1,0-.08Z" style="fill:#407BFF"></path><path d="M427.67,343.73a.89.89,0,0,0,.28.45.94.94,0,0,0-.22.28.36.36,0,0,1,0,.09.29.29,0,0,0,0,.09Z" style="fill:#407BFF"></path><path d="M436,343.49v.12a.5.5,0,0,0,0-.12Z" style="fill:#407BFF"></path><path d="M430,346v1.13l-.14-.1h-.18v-1.13h.18Z" style="opacity:0.2"></path><path d="M434,345.88V347h-.18l-.13.1V346l.13-.11Z" style="opacity:0.2"></path><path d="M427.67,343.73a.89.89,0,0,0,.28.45.94.94,0,0,0-.22.28.36.36,0,0,1,0,.09.29.29,0,0,0,0,.09Z" style="opacity:0.2"></path><path d="M435.72,344.18a.81.81,0,0,0,.3-.57v1.14s0-.05,0-.08a.43.43,0,0,0,0-.14.51.51,0,0,0-.07-.15l-.11-.13Z" style="fill:#407BFF"></path><path d="M436,343.73a.85.85,0,0,1-.29.45,1,1,0,0,1,.23.28.36.36,0,0,0,0,.09s0,.06,0,.09Z" style="opacity:0.2"></path><path d="M435.57,344.18c0,.83-1.66,1.5-3.7,1.5s-3.71-.67-3.71-1.5c0,0,0-.08,0-.12.15.78,1.75,1.38,3.7,1.38s3.54-.6,3.69-1.38A.49.49,0,0,1,435.57,344.18Z" style="opacity:0.2"></path><path d="M435.22,344a.36.36,0,0,1,0,.11c-.13-.7-1.59-1.26-3.36-1.26s-3.23.56-3.37,1.26a.37.37,0,0,1,0-.11c0-.75,1.51-1.36,3.38-1.36S435.22,343.2,435.22,344Z" style="opacity:0.2"></path><path d="M429.92,340.19v.08h0v.08a1,1,0,0,1-.05.16,1.19,1.19,0,0,1-.08.16.79.79,0,0,1-.12.15l-.08.07h0a3.39,3.39,0,0,1-2.13.62,3.92,3.92,0,0,1-4.26,0,3.37,3.37,0,0,1-2.13-.62h0a1,1,0,0,1-.25-.3.42.42,0,0,1,0-.1l0-.1v-.24l0-.1a.42.42,0,0,1,0-.1,1.11,1.11,0,0,1,.25-.3,1,1,0,0,1-.32-.5v-.26h0a.87.87,0,0,1,.31-.49,6,6,0,0,1,6.39-.62,3.37,3.37,0,0,1,2.13.62.87.87,0,0,1,.31.49.3.3,0,0,1,0,.13.86.86,0,0,1-.33.63l.08.07a.79.79,0,0,1,.12.15.6.6,0,0,1,.08.16A1,1,0,0,1,429.92,340.19Z" style="fill:#407BFF"></path><path d="M429.92,340.19v.08h0v.08a1,1,0,0,1-.05.16,1.19,1.19,0,0,1-.08.16.79.79,0,0,1-.12.15l-.08.07h0a3.25,3.25,0,0,1-1.94.62h-.19a1.58,1.58,0,0,1-.15.12,4.1,4.1,0,0,1-4,0l-.15-.12H423a3.25,3.25,0,0,1-1.94-.62h0a1,1,0,0,1-.25-.3.42.42,0,0,1,0-.1l0-.1v-.24l0-.1a.42.42,0,0,1,0-.1,1.11,1.11,0,0,1,.25-.3,1,1,0,0,1-.32-.5v-.26h0a.87.87,0,0,1,.31-.49,6,6,0,0,1,6.39-.62,3.37,3.37,0,0,1,2.13.62.87.87,0,0,1,.31.49.3.3,0,0,1,0,.13.86.86,0,0,1-.33.63l.08.07a.79.79,0,0,1,.12.15.6.6,0,0,1,.08.16A1,1,0,0,1,429.92,340.19Z" style="fill:#fff;opacity:0.2"></path><path d="M420.75,339.15a.57.57,0,0,1,0-.26Z" style="fill:#407BFF"></path><path d="M420.78,340.49l0-.09v0a0,0,0,0,0,0,0v-.17s0,0,0,0h0v.24Z" style="fill:#407BFF"></path><path d="M420.78,340.05l0,.1v.24h0a0,0,0,0,0,0,0v-.17s0,0,0,0v0Z" style="fill:#407BFF"></path><path d="M429.92,340.27v1.24a.83.83,0,0,1-.33.63,3.25,3.25,0,0,1-1.94.62h-.19l-.15.12a4.17,4.17,0,0,1-4,0l-.15-.12H423a3.25,3.25,0,0,1-1.94-.62.78.78,0,0,1-.32-.74v-1l0,.09a.42.42,0,0,0,0,.1,1,1,0,0,0,.25.3h0l.08.07,0,0,.18.12.08,0,.07,0,0,0,.11.05.23.08.25.07h.05l.23.05h0l.12,0h.15l.24,0h.24l.15.12.09.06a1,1,0,0,0,.21.11l.09,0,.11,0,.15.06.21.06.26.06.27,0,.25,0h.67l.26,0,.13,0,.14,0,.25-.05h0l.24-.07.11-.05h.05l.06,0h0a2.1,2.1,0,0,0,.3-.15l.09-.06a1.58,1.58,0,0,0,.15-.12h.24l.21,0h.18l.11,0h.1l.16,0h.11l.31-.09.1,0h0l.12-.05.07,0a1.82,1.82,0,0,0,.41-.27h0l.08-.07a.79.79,0,0,0,.12-.15,1.19,1.19,0,0,0,.08-.16,1,1,0,0,0,.05-.16Z" style="fill:#407BFF"></path><path d="M420.75,340.39l0,.1,0-.09Z" style="fill:#407BFF"></path><path d="M420.75,339.15a1,1,0,0,0,.32.5,1.11,1.11,0,0,0-.25.3.42.42,0,0,0,0,.1l0,.1Z" style="fill:#407BFF"></path><path d="M429.92,338.89V339a.3.3,0,0,0,0-.13Z" style="fill:#407BFF"></path><path d="M423.35,341.63v1.25l-.15-.12H423v-1.25h.19Z" style="opacity:0.2"></path><path d="M427.65,341.51v1.25h-.19l-.15.12v-1.25a1.58,1.58,0,0,0,.15-.12Z" style="opacity:0.2"></path><path d="M420.75,339.15a1,1,0,0,0,.32.5,1.11,1.11,0,0,0-.25.3.42.42,0,0,0,0,.1l0,.1Z" style="opacity:0.2"></path><path d="M429.59,339.65a.86.86,0,0,0,.33-.63v1.17a1,1,0,0,0-.05-.16.6.6,0,0,0-.08-.16.79.79,0,0,0-.12-.15Z" style="fill:#407BFF"></path><path d="M429.91,339.15a1,1,0,0,1-.31.5,1.33,1.33,0,0,1,.25.3.42.42,0,0,0,0,.1.36.36,0,0,1,0,.1Z" style="opacity:0.2"></path><path d="M429.43,339.65c0,.91-1.82,1.65-4.07,1.65s-4.07-.74-4.07-1.65a.51.51,0,0,1,0-.13c.16.85,1.92,1.51,4.05,1.51s3.9-.66,4.06-1.51A.53.53,0,0,1,429.43,339.65Z" style="opacity:0.2"></path><path d="M429,339.4a.49.49,0,0,1,0,.12c-.15-.78-1.75-1.39-3.7-1.39s-3.55.61-3.7,1.39c0,0,0-.08,0-.12,0-.83,1.66-1.51,3.71-1.51S429,338.57,429,339.4Z" style="opacity:0.2"></path><path d="M426.9,345.81a.28.28,0,0,1,0,.09h0a.28.28,0,0,1,0,.09.65.65,0,0,1,0,.19,1.62,1.62,0,0,1-.1.18,1.77,1.77,0,0,1-.14.17l-.09.08h0a3.9,3.9,0,0,1-2.43.71,4.51,4.51,0,0,1-4.86,0,3.92,3.92,0,0,1-2.43-.71h0a1.27,1.27,0,0,1-.28-.35,1.17,1.17,0,0,1,0-.11.52.52,0,0,1,0-.11v-.28a.52.52,0,0,1,0-.11,1.17,1.17,0,0,1,0-.11,1.27,1.27,0,0,1,.28-.35,1,1,0,0,1-.35-.57v-.3h0a1,1,0,0,1,.35-.55,3.84,3.84,0,0,1,2.43-.71,4.51,4.51,0,0,1,4.86,0,3.84,3.84,0,0,1,2.43.71,1,1,0,0,1,.36.55.88.88,0,0,1,0,.16,1,1,0,0,1-.38.71l.09.08a1.77,1.77,0,0,1,.14.17,1.62,1.62,0,0,1,.1.18A.65.65,0,0,1,426.9,345.81Z" style="fill:#407BFF"></path><path d="M426.9,345.81a.28.28,0,0,1,0,.09h0a.28.28,0,0,1,0,.09.65.65,0,0,1,0,.19,1.62,1.62,0,0,1-.1.18,1.77,1.77,0,0,1-.14.17l-.09.08h0a3.68,3.68,0,0,1-2.21.7h-.22l-.17.14a4.75,4.75,0,0,1-4.51,0l-.18-.14H419a3.74,3.74,0,0,1-2.22-.7h0a1.27,1.27,0,0,1-.28-.35,1.17,1.17,0,0,1,0-.11.52.52,0,0,1,0-.11v-.28a.52.52,0,0,1,0-.11,1.17,1.17,0,0,1,0-.11,1.27,1.27,0,0,1,.28-.35,1,1,0,0,1-.35-.57v-.3h0a1,1,0,0,1,.35-.55,3.84,3.84,0,0,1,2.43-.71,4.51,4.51,0,0,1,4.86,0,3.84,3.84,0,0,1,2.43.71,1,1,0,0,1,.36.55.88.88,0,0,1,0,.16,1,1,0,0,1-.38.71l.09.08a1.77,1.77,0,0,1,.14.17,1.62,1.62,0,0,1,.1.18A.65.65,0,0,1,426.9,345.81Z" style="fill:#fff;opacity:0.2"></path><path d="M416.46,344.62a.48.48,0,0,1,0-.29Z" style="fill:#407BFF"></path><path d="M416.48,346.15a.36.36,0,0,1,0-.1,0,0,0,0,1,0,0v0a.67.67,0,0,1,0-.2V346A.52.52,0,0,0,416.48,346.15Z" style="fill:#407BFF"></path><path d="M416.48,345.65a.52.52,0,0,0,0,.11V346a.67.67,0,0,1,0-.2v0a0,0,0,0,1,0,0A.36.36,0,0,1,416.48,345.65Z" style="fill:#407BFF"></path><path d="M426.91,345.9v1.42a.94.94,0,0,1-.38.71,3.73,3.73,0,0,1-2.21.71h-.22a1.09,1.09,0,0,1-.17.13,4.13,4.13,0,0,1-2.26.58,4.21,4.21,0,0,1-2.25-.57l-.18-.14H419a3.78,3.78,0,0,1-2.22-.71.88.88,0,0,1-.35-.85v-1.13a.36.36,0,0,0,0,.1.37.37,0,0,0,0,.11,1.27,1.27,0,0,0,.28.35h0l.1.08,0,0,.21.13.09.05.07,0,.05,0,.13.06.26.09.28.08h.06a1.28,1.28,0,0,0,.27.05h0l.14,0,.13,0h0l.27,0h.27l.18.14.1.06a1.34,1.34,0,0,0,.24.12.31.31,0,0,0,.1.05l.12.05.18.07a1.55,1.55,0,0,0,.23.06l.3.07.31.05.29,0h.77l.28,0,.16,0,.16,0,.28-.06h0l.28-.08.12-.05.05,0,.07,0h0l.34-.17.1-.06.17-.14h.27l.24,0h.07l.14,0,.13,0h.11l.18,0h0l.08,0h0l.35-.11.11,0h0L426,347l.08,0a1.92,1.92,0,0,0,.46-.3h0l.09-.08a1.77,1.77,0,0,0,.14-.17,1.62,1.62,0,0,0,.1-.18.65.65,0,0,0,0-.19A.28.28,0,0,0,426.91,345.9Z" style="fill:#407BFF"></path><path d="M416.46,346a.52.52,0,0,0,0,.11.36.36,0,0,1,0-.1Z" style="fill:#407BFF"></path><path d="M416.46,344.62a1,1,0,0,0,.35.57,1.27,1.27,0,0,0-.28.35,1.17,1.17,0,0,0,0,.11.52.52,0,0,0,0,.11Z" style="fill:#407BFF"></path><path d="M426.91,344.32v.16a.88.88,0,0,0,0-.16Z" style="fill:#407BFF"></path><path d="M419.42,347.46v1.42l-.18-.14H419v-1.43h.21Z" style="opacity:0.2"></path><path d="M424.32,347.31v1.43h-.22a1.09,1.09,0,0,1-.17.13v-1.41l.17-.14Z" style="opacity:0.2"></path><path d="M416.46,344.62a1,1,0,0,0,.35.57,1.27,1.27,0,0,0-.28.35,1.17,1.17,0,0,0,0,.11.52.52,0,0,0,0,.11Z" style="opacity:0.2"></path><path d="M426.53,345.19a1,1,0,0,0,.38-.71v1.42a.28.28,0,0,0,0-.09.65.65,0,0,0,0-.19,1.62,1.62,0,0,0-.1-.18,1.77,1.77,0,0,0-.14-.17Z" style="fill:#407BFF"></path><path d="M426.9,344.62a1.06,1.06,0,0,1-.36.57,1.11,1.11,0,0,1,.28.35.37.37,0,0,1,.05.11l0,.11Z" style="opacity:0.2"></path><path d="M426.36,345.19c0,1-2.08,1.88-4.65,1.88s-4.64-.84-4.64-1.88a.77.77,0,0,1,0-.15c.18,1,2.19,1.73,4.62,1.73s4.44-.76,4.63-1.73A.77.77,0,0,1,426.36,345.19Z" style="opacity:0.2"></path><path d="M425.91,344.9a.59.59,0,0,1,0,.14c-.17-.88-2-1.58-4.21-1.58s-4.05.7-4.22,1.58a.59.59,0,0,1,0-.14c0-.94,1.9-1.71,4.24-1.71S425.91,344,425.91,344.9Z" style="opacity:0.2"></path></g><g id="freepik--Lamp--inject-9"><rect x="48.57" y="99.21" width="7.66" height="0.77" transform="translate(-48.49 149.45) rotate(-88.54)" style="fill:#407BFF"></rect><polygon points="56.44 111.6 53.48 105.16 53.19 105.29 53.17 105.2 52.86 105.29 52.86 105.26 52.33 105.3 51.76 105.24 51.76 105.25 51.45 105.16 51.43 105.23 51.15 105.08 47.92 111.4 48.61 111.75 50.61 107.83 49.46 111.5 50.2 111.73 51.48 107.65 51.01 111.61 51.78 111.7 52.26 107.6 52.58 111.72 53.34 111.66 53.04 107.7 54.15 111.82 54.9 111.62 53.91 107.94 55.74 111.92 56.44 111.6" style="fill:#407BFF"></polygon><rect x="48.57" y="99.21" width="7.66" height="0.77" transform="translate(-48.49 149.45) rotate(-88.54)" style="fill:#407BFF"></rect><polygon points="56.44 111.6 53.48 105.16 53.19 105.29 53.17 105.2 52.86 105.29 52.86 105.26 52.33 105.3 51.76 105.24 51.76 105.25 51.45 105.16 51.43 105.23 51.15 105.08 47.92 111.4 48.61 111.75 50.61 107.83 49.46 111.5 50.2 111.73 51.48 107.65 51.01 111.61 51.78 111.7 52.26 107.6 52.58 111.72 53.34 111.66 53.04 107.7 54.15 111.82 54.9 111.62 53.91 107.94 55.74 111.92 56.44 111.6" style="fill:#407BFF"></polygon><path d="M54.73,103.69a2.43,2.43,0,1,1-2.36-2.49A2.43,2.43,0,0,1,54.73,103.69Z" style="fill:#407BFF"></path><path d="M54.73,103.69a2.43,2.43,0,1,1-2.36-2.49A2.43,2.43,0,0,1,54.73,103.69Z" style="opacity:0.2"></path><polygon points="62.34 66.7 42.81 66.81 39.02 64.23 66.1 64.07 62.34 66.7" style="fill:#407BFF"></polygon><polygon points="62.34 66.7 42.81 66.81 39.05 69.45 66.13 69.29 62.34 66.7" style="fill:#407BFF"></polygon><polygon points="62.37 72.05 42.84 72.16 39.05 69.57 66.14 69.41 62.37 72.05" style="fill:#407BFF"></polygon><polygon points="62.37 72.05 42.84 72.16 39.08 74.79 66.17 74.63 62.37 72.05" style="fill:#407BFF"></polygon><polygon points="62.41 77.39 42.87 77.5 39.08 74.91 66.17 74.76 62.41 77.39" style="fill:#407BFF"></polygon><polygon points="62.41 77.39 42.87 77.5 39.11 80.13 66.19 79.97 62.41 77.39" style="fill:#407BFF"></polygon><polygon points="62.44 82.73 42.91 82.84 39.11 80.25 66.2 80.1 62.44 82.73" style="fill:#407BFF"></polygon><polygon points="62.44 82.73 42.91 82.84 39.15 85.47 66.23 85.32 62.44 82.73" style="fill:#407BFF"></polygon><polygon points="62.47 88.07 42.94 88.18 39.15 85.6 66.23 85.44 62.47 88.07" style="fill:#407BFF"></polygon><polygon points="62.47 88.07 42.94 88.18 39.17 90.81 66.26 90.66 62.47 88.07" style="fill:#407BFF"></polygon><polygon points="62.5 93.41 42.97 93.53 39.18 90.94 66.26 90.78 62.5 93.41" style="fill:#407BFF"></polygon><polygon points="62.5 93.41 42.97 93.53 39.21 96.16 66.29 96 62.5 93.41" style="fill:#407BFF"></polygon><polygon points="43.38 65.97 42.86 65.4 53.32 55.81 62.48 65.38 61.92 65.91 53.28 56.88 43.38 65.97" style="fill:#407BFF"></polygon><polygon points="62.34 66.7 42.81 66.81 39.05 69.45 66.13 69.29 62.34 66.7" style="fill:#fff;opacity:0.2"></polygon><polygon points="62.34 71.89 42.81 72.01 39.05 74.64 66.13 74.48 62.34 71.89" style="fill:#fff;opacity:0.2"></polygon><polygon points="62.34 77.39 42.81 77.5 39.05 80.13 66.13 79.97 62.34 77.39" style="fill:#fff;opacity:0.2"></polygon><polygon points="62.34 82.73 42.81 82.84 39.05 85.47 66.13 85.32 62.34 82.73" style="fill:#fff;opacity:0.2"></polygon><polygon points="62.34 88.07 42.81 88.18 39.05 90.81 66.13 90.66 62.34 88.07" style="fill:#fff;opacity:0.2"></polygon><polygon points="62.34 93.41 42.81 93.53 39.05 96.16 66.13 96 62.34 93.41" style="fill:#fff;opacity:0.2"></polygon><rect x="441.21" y="98.59" width="7.66" height="0.77" transform="translate(334.73 541.34) rotate(-88.54)" style="fill:#407BFF"></rect><polygon points="449.08 110.98 446.11 104.53 445.83 104.67 445.81 104.58 445.49 104.67 445.49 104.64 444.97 104.68 444.4 104.62 444.4 104.63 444.09 104.53 444.06 104.61 443.79 104.46 440.56 110.78 441.25 111.13 443.25 107.21 442.1 110.88 442.84 111.11 444.12 107.03 443.65 110.98 444.42 111.08 444.9 106.98 445.21 111.1 445.98 111.04 445.68 107.08 446.79 111.2 447.53 111 446.54 107.32 448.38 111.3 449.08 110.98" style="fill:#407BFF"></polygon><rect x="441.21" y="98.59" width="7.66" height="0.77" transform="translate(334.73 541.34) rotate(-88.54)" style="fill:#407BFF"></rect><polygon points="449.08 110.98 446.11 104.53 445.83 104.67 445.81 104.58 445.49 104.67 445.49 104.64 444.97 104.68 444.4 104.62 444.4 104.63 444.09 104.53 444.06 104.61 443.79 104.46 440.56 110.78 441.25 111.13 443.25 107.21 442.1 110.88 442.84 111.11 444.12 107.03 443.65 110.98 444.42 111.08 444.9 106.98 445.21 111.1 445.98 111.04 445.68 107.08 446.79 111.2 447.53 111 446.54 107.32 448.38 111.3 449.08 110.98" style="fill:#407BFF"></polygon><path d="M447.37,103.07a2.43,2.43,0,1,1-4.85-.13,2.43,2.43,0,0,1,4.85.13Z" style="fill:#407BFF"></path><path d="M447.37,103.07a2.43,2.43,0,1,1-4.85-.13,2.43,2.43,0,0,1,4.85.13Z" style="opacity:0.2"></path><polygon points="454.98 66.08 435.45 66.19 431.66 63.61 458.74 63.45 454.98 66.08" style="fill:#407BFF"></polygon><polygon points="454.98 66.08 435.45 66.19 431.69 68.83 458.77 68.67 454.98 66.08" style="fill:#407BFF"></polygon><polygon points="455.01 71.42 435.48 71.54 431.69 68.95 458.77 68.79 455.01 71.42" style="fill:#407BFF"></polygon><polygon points="455.01 71.42 435.48 71.54 431.72 74.17 458.8 74.01 455.01 71.42" style="fill:#407BFF"></polygon><polygon points="455.04 76.77 435.51 76.88 431.72 74.29 458.8 74.14 455.04 76.77" style="fill:#407BFF"></polygon><polygon points="455.04 76.77 435.51 76.88 431.75 79.51 458.83 79.35 455.04 76.77" style="fill:#407BFF"></polygon><polygon points="455.07 82.11 435.54 82.22 431.75 79.63 458.83 79.48 455.07 82.11" style="fill:#407BFF"></polygon><polygon points="455.07 82.11 435.54 82.22 431.78 84.85 458.86 84.7 455.07 82.11" style="fill:#407BFF"></polygon><polygon points="455.1 87.45 435.57 87.56 431.78 84.98 458.86 84.82 455.1 87.45" style="fill:#407BFF"></polygon><polygon points="455.1 87.45 435.57 87.56 431.81 90.19 458.89 90.04 455.1 87.45" style="fill:#407BFF"></polygon><polygon points="455.13 92.79 435.6 92.91 431.81 90.32 458.89 90.16 455.13 92.79" style="fill:#407BFF"></polygon><polygon points="455.13 92.79 435.6 92.91 431.84 95.54 458.92 95.38 455.13 92.79" style="fill:#407BFF"></polygon><polygon points="436.01 65.35 435.49 64.78 445.96 55.19 455.12 64.75 454.56 65.29 445.92 56.26 436.01 65.35" style="fill:#407BFF"></polygon><polygon points="454.98 66.08 435.45 66.19 431.69 68.83 458.77 68.67 454.98 66.08" style="fill:#fff;opacity:0.2"></polygon><polygon points="454.98 71.28 435.45 71.39 431.69 74.02 458.77 73.86 454.98 71.28" style="fill:#fff;opacity:0.2"></polygon><polygon points="454.98 76.77 435.45 76.88 431.69 79.51 458.77 79.35 454.98 76.77" style="fill:#fff;opacity:0.2"></polygon><polygon points="454.98 82.11 435.45 82.22 431.69 84.85 458.77 84.7 454.98 82.11" style="fill:#fff;opacity:0.2"></polygon><polygon points="454.98 87.45 435.45 87.56 431.69 90.19 458.77 90.04 454.98 87.45" style="fill:#fff;opacity:0.2"></polygon><polygon points="454.98 92.79 435.45 92.91 431.69 95.54 458.77 95.38 454.98 92.79" style="fill:#fff;opacity:0.2"></polygon><rect x="131.54" y="134.64" width="6.03" height="0.61" transform="translate(-3.77 266.01) rotate(-88.54)" style="fill:#407BFF"></rect><polygon points="137.73 144.38 135.4 139.31 135.18 139.42 135.16 139.35 134.91 139.42 134.91 139.4 134.5 139.43 134.05 139.38 134.05 139.39 133.81 139.31 133.79 139.37 133.57 139.26 131.03 144.23 131.57 144.5 133.15 141.42 132.24 144.31 132.82 144.49 133.83 141.28 133.46 144.39 134.07 144.46 134.44 141.24 134.69 144.48 135.3 144.43 135.06 141.31 135.93 144.56 136.52 144.4 135.74 141.5 137.18 144.64 137.73 144.38" style="fill:#407BFF"></polygon><rect x="131.54" y="134.64" width="6.03" height="0.61" transform="translate(-3.77 266.01) rotate(-88.54)" style="fill:#407BFF"></rect><polygon points="137.73 144.38 135.4 139.31 135.18 139.42 135.16 139.35 134.91 139.42 134.91 139.4 134.5 139.43 134.05 139.38 134.05 139.39 133.81 139.31 133.79 139.37 133.57 139.26 131.03 144.23 131.57 144.5 133.15 141.42 132.24 144.31 132.82 144.49 133.83 141.28 133.46 144.39 134.07 144.46 134.44 141.24 134.69 144.48 135.3 144.43 135.06 141.31 135.93 144.56 136.52 144.4 135.74 141.5 137.18 144.64 137.73 144.38" style="fill:#407BFF"></polygon><path d="M136.39,138.16a1.91,1.91,0,1,1-1.86-2A1.92,1.92,0,0,1,136.39,138.16Z" style="fill:#407BFF"></path><path d="M136.39,138.16a1.91,1.91,0,1,1-1.86-2A1.92,1.92,0,0,1,136.39,138.16Z" style="opacity:0.2"></path><polygon points="142.38 109.05 127.01 109.14 124.03 107.1 145.34 106.98 142.38 109.05" style="fill:#407BFF"></polygon><polygon points="142.38 109.05 127.01 109.14 124.05 111.21 145.36 111.09 142.38 109.05" style="fill:#407BFF"></polygon><polygon points="142.4 113.26 127.03 113.34 124.05 111.31 145.36 111.19 142.4 113.26" style="fill:#407BFF"></polygon><polygon points="142.4 113.26 127.03 113.34 124.07 115.42 145.39 115.29 142.4 113.26" style="fill:#407BFF"></polygon><polygon points="142.43 117.46 127.06 117.55 124.08 115.51 145.39 115.39 142.43 117.46" style="fill:#407BFF"></polygon><polygon points="142.43 117.46 127.06 117.55 124.1 119.62 145.41 119.5 142.43 117.46" style="fill:#407BFF"></polygon><polygon points="142.45 121.67 127.08 121.75 124.1 119.72 145.41 119.59 142.45 121.67" style="fill:#407BFF"></polygon><polygon points="142.45 121.67 127.08 121.75 124.12 123.82 145.44 123.7 142.45 121.67" style="fill:#407BFF"></polygon><polygon points="142.48 125.87 127.11 125.96 124.12 123.92 145.44 123.8 142.48 125.87" style="fill:#407BFF"></polygon><polygon points="142.48 125.87 127.11 125.96 124.15 128.03 145.46 127.91 142.48 125.87" style="fill:#407BFF"></polygon><polygon points="142.5 130.07 127.13 130.16 124.15 128.13 145.46 128 142.5 130.07" style="fill:#407BFF"></polygon><polygon points="142.5 130.07 127.13 130.16 124.17 132.23 145.48 132.11 142.5 130.07" style="fill:#407BFF"></polygon><polygon points="127.45 108.47 127.04 108.03 135.28 100.48 142.49 108.01 142.05 108.43 135.25 101.33 127.45 108.47" style="fill:#407BFF"></polygon><polygon points="142.38 109.05 127.01 109.14 124.05 111.21 145.36 111.09 142.38 109.05" style="fill:#fff;opacity:0.2"></polygon><polygon points="142.38 113.14 127.01 113.23 124.05 115.3 145.36 115.17 142.38 113.14" style="fill:#fff;opacity:0.2"></polygon><polygon points="142.38 117.46 127.01 117.55 124.05 119.62 145.36 119.5 142.38 117.46" style="fill:#fff;opacity:0.2"></polygon><polygon points="142.38 121.67 127.01 121.75 124.05 123.82 145.36 123.7 142.38 121.67" style="fill:#fff;opacity:0.2"></polygon><polygon points="142.38 125.87 127.01 125.96 124.05 128.03 145.36 127.91 142.38 125.87" style="fill:#fff;opacity:0.2"></polygon><polygon points="142.38 130.07 127.01 130.16 124.05 132.23 145.36 132.11 142.38 130.07" style="fill:#fff;opacity:0.2"></polygon></g><g id="freepik--Moon--inject-9"><path d="M374.1,211.8A19.56,19.56,0,1,1,350.35,187,18,18,0,1,0,374.1,211.8Z" style="fill:#407BFF"></path><g style="opacity:0.5"><path d="M374.1,211.8A19.56,19.56,0,1,1,350.35,187,18,18,0,1,0,374.1,211.8Z" style="fill:#fff"></path></g></g><g id="freepik--character-1--inject-9"><path d="M64,242c-.27.2-8.92-4.23-8.92-4.23l7.19-2.94L66.59,237S67.54,239.42,64,242Z" style="fill:#ff8b7b"></path><path d="M55,237.81,52.66,232l7.1-.85,2.47,3.72S59,238.88,55,237.81Z" style="fill:#ff8b7b"></path><path d="M113.88,208.75c-.18-.65-.37-1.28-.56-1.88A5.67,5.67,0,0,1,113.88,208.75Z" style="fill:#407BFF"></path><path d="M114.29,218.81v0S93.76,238.07,92.84,239a14.2,14.2,0,0,1-2.06,1.73A16.3,16.3,0,0,1,88.42,242a26,26,0,0,1-8.48,1.75,54.73,54.73,0,0,1-15.25-1.42,2.78,2.78,0,0,1,.41-5.49h.14a96.44,96.44,0,0,0,13.56-1.69,19.57,19.57,0,0,0,5.41-1.9,4.58,4.58,0,0,0,.75-.56.88.88,0,0,0,.21-.22l.39-.46c.74-.83,1.47-1.68,2.17-2.56,1.53-1.9,11.41-21.84,17.09-25.85,4.06-2.85,6.76-1.89,8.5,3.29.19.6.38,1.23.56,1.88a57.08,57.08,0,0,1,1.23,6.27A5.83,5.83,0,0,1,114.29,218.81Z" style="fill:#407BFF"></path><g style="opacity:0.1"><path d="M114.29,218.81v0S93.76,238.07,92.84,239a14.2,14.2,0,0,1-2.06,1.73A16.3,16.3,0,0,1,88.42,242a26,26,0,0,1-8.48,1.75,54.73,54.73,0,0,1-15.25-1.42,2.78,2.78,0,0,1,.41-5.49h.14a96.44,96.44,0,0,0,13.56-1.69,19.57,19.57,0,0,0,5.41-1.9,4.58,4.58,0,0,0,.75-.56.88.88,0,0,0,.21-.22l.39-.46c.74-.83,1.47-1.68,2.17-2.56,1.53-1.9,11.41-21.84,17.09-25.85,4.06-2.85,6.76-1.89,8.5,3.29.19.6.38,1.23.56,1.88a57.08,57.08,0,0,1,1.23,6.27A5.83,5.83,0,0,1,114.29,218.81Z"></path></g><path d="M132.15,406.52a.16.16,0,0,1-.14-.15.15.15,0,0,1,.08-.17c.13-.06,2.71-1.53,3.93-1.19a.8.8,0,0,1,.56.4.66.66,0,0,1,0,.76c-.3.43-1.18.56-2.16.56A14.41,14.41,0,0,1,132.15,406.52Zm3.44-1.24a7.94,7.94,0,0,0-2.89,1c1.36.18,3.22.17,3.57-.3.07-.07.11-.17,0-.38a.53.53,0,0,0-.35-.25h-.33Z" style="fill:#407BFF"></path><path d="M132.08,406.48a.19.19,0,0,1-.08-.16c0-.08.17-2.06,1.15-2.84a1.29,1.29,0,0,1,1-.29c.48.05.65.29.65.49.14.85-1.62,2.42-2.52,2.82h-.07A.14.14,0,0,1,132.08,406.48Zm1.93-3a.91.91,0,0,0-.62.26,4.16,4.16,0,0,0-1,2.27c.92-.55,2.11-1.8,2-2.3,0,0,0-.2-.35-.2H134Z" style="fill:#407BFF"></path><polygon points="124.84 389.28 132.19 389.28 131.46 406.32 124.1 406.32 124.84 389.28" style="fill:#ff8b7b"></polygon><path d="M133.19,406.05c5,3.07,6.51,3.2,12.27,4.46,1.26.28.42,3.34-2.6,3.34-5,0-5.51-.24-9.77-.24-3.65,0-7.84.17-10.74.22a1.09,1.09,0,0,1-.26,0,1.06,1.06,0,0,1-.79-1.28l1.45-6.54a.64.64,0,0,1,.63-.5h8A3.41,3.41,0,0,1,133.19,406.05Z" style="fill:#263238"></path><polygon points="124.83 389.29 124.46 398.07 131.82 398.07 132.19 389.29 124.83 389.29" style="opacity:0.2;isolation:isolate"></polygon><path d="M109.15,256.24s-6.23,14.63-12.07,39.21C89.48,327.51,71.15,393,71.15,393l13,2.85s26.77-76.23,33.8-99.21a268.52,268.52,0,0,1,16.63-40.4Z" style="fill:#263238"></path><path d="M126.13,273.59c-11.58,31.47-14,40.92-14.2,41.53,1.4-19.15,7.17-40.53,14.2-41.53C126.62,273.51,125.65,273.44,126.13,273.59Z" style="opacity:0.30000000000000004;isolation:isolate"></path><path d="M122.62,256.24s.46,17.26-.09,42.25c-.5,22.93,0,97.88,0,97.88H135s9.57-76.46,12.11-99.78a268.83,268.83,0,0,0,1.4-40.35Z" style="fill:#263238"></path><path d="M120.69,392l.41,4.61h15.17s.75-5.17.69-5.17Z" style="fill:#407BFF"></path><path d="M70.78,406.43a.17.17,0,0,1-.14.14.14.14,0,0,1-.17-.09c-.07-.13-1.52-2.71-1.17-3.93a.86.86,0,0,1,.4-.55.65.65,0,0,1,.77,0c.42.31.54,1.19.54,2.17A13.12,13.12,0,0,1,70.78,406.43ZM69.58,403a8,8,0,0,0,.9,2.89c.2-1.37.2-3.22-.27-3.57-.06-.08-.17-.12-.38,0a.51.51,0,0,0-.25.35,1.82,1.82,0,0,0,0,.33Z" style="fill:#407BFF"></path><path d="M70.77,406.5a.16.16,0,0,1-.16.07c-.07,0-2.06-.18-2.82-1.16a1.25,1.25,0,0,1-.29-1c0-.48.29-.64.49-.64.83-.13,2.41,1.64,2.8,2.52v.07A.16.16,0,0,1,70.77,406.5Zm-3-1.93a1,1,0,0,0,.25.61,4.11,4.11,0,0,0,2.26,1c-.54-.92-1.78-2.12-2.28-2,0,0-.2,0-.2.34v.1Z" style="fill:#407BFF"></path><polygon points="74 392.31 81.17 392.85 77.86 406.94 70.67 406.43 74 392.31" style="fill:#ff8b7b"></polygon><polygon points="74.08 391.91 72.63 398.11 79.81 398.63 81.27 392.41 74.08 391.91" style="opacity:0.2;isolation:isolate"></polygon><path d="M68.94,405.49c-1.93,2.29-3,3.47-8.58,5.24-1.24.38-.13,3.35,2.88,3.09,5-.45,2.23-.44,6.47-.81,3.63-.32,7.82-.52,10.71-.73a.92.92,0,0,0,.28,0,1.06,1.06,0,0,0,.7-1.34l-2-6.39a.64.64,0,0,0-.67-.45l-8,.71A2.48,2.48,0,0,0,68.94,405.49Z" style="fill:#263238"></path><path d="M69.59,390.59l-.07,4.64,15.61,1.67s1.33-5.06,1.28-5.06Z" style="fill:#407BFF"></path><path d="M128,170.84a.29.29,0,0,1-.19.2,2.27,2.27,0,0,0-1.53,1.38.28.28,0,1,1-.54-.16,2.79,2.79,0,0,1,1.9-1.77.28.28,0,0,1,.36.19h0A.22.22,0,0,1,128,170.84Z" style="fill:#263238"></path><path d="M129.36,173.77c.2.51.1,1-.23,1.17s-.8-.19-1-.69-.1-1,.24-1.16S129.16,173.27,129.36,173.77Z" style="fill:#263238"></path><path d="M128.86,175.71l4,3a3.78,3.78,0,0,1-3,1.51Z" style="fill:#ba4d3c"></path><path d="M114.56,199.7s4.35-1.76,1.88-10c0,0,3.6-3.1,7-1.44s-.06,8.84,4,10.27S114.56,199.7,114.56,199.7Z" style="fill:#ff8b7b"></path><path d="M121.92,192.33a16,16,0,0,0,3.3,2.23c-.07-1.13,0-2.34-.18-3.42Z" style="opacity:0.1"></path><path d="M109.21,179.79c2.36,6.89,3.21,9.86,7.75,12.48,6.42,2.18,14.78-.46,14.52-7.93-.23-6.71-4-16.83-11.7-17.77a9.94,9.94,0,0,0-10.57,13.22Z" style="fill:#ff8b7b"></path><path d="M124.35,180.68s5.33-2.54,1.33-8.3c0,0,4.23-6.93-1.48-10.73s-11.35.29-11.35.29l1.47,1.36s-16,9.76-7,18.81c0,0-.19,6.57,4.15,7.79a25,25,0,0,1,5.52,2s.85-1.67,3.67-.81l.83-5A7.44,7.44,0,0,0,124.35,180.68Z" style="fill:#263238"></path><path d="M123.78,177a5.59,5.59,0,0,1,2.85,3.22c.62,1.87-1,2.93-2.85,2.5-1.65-.38-3.94-1.82-3.77-3.75A2.53,2.53,0,0,1,123.78,177Z" style="fill:#ff8b7b"></path><path d="M112.3,200.7l.91-3.89s14.36-1.11,16.35.3a6,6,0,0,1,2.36,3.46Z" style="fill:#407BFF"></path><path d="M108.88,257.15s1-24.48-1.86-38.07-2.85-19.08,8.1-19.61,24.54-3.15,30.08,8.93,3.31,47.84,3.31,47.84Z" style="fill:#407BFF"></path><path d="M130.86,182h0a10.44,10.44,0,0,1-.09,3.86l0,.15-.14.05-.2.07-.16,0a1.57,1.57,0,0,1-1.43-.67,3.62,3.62,0,0,1-.63-1.07h0a3,3,0,0,1-.19-1.73c0-.08,0-.14.06-.2.29-.71,1.07-.8,1.74-.73h0l.35,0,.08,0a3.45,3.45,0,0,1,.36.1A2.09,2.09,0,0,1,130.86,182Z" style="fill:#263238"></path><path d="M130.59,181.94l-.06.8c-2,.24-2.5-.18-2.48-.24.29-.71,1.07-.8,1.74-.73h0l.35,0,.08,0A3.45,3.45,0,0,1,130.59,181.94Z" style="fill:#fff"></path><path d="M130.4,186.15c-1.16.28-1.9-.9-2.22-1.71h0c0-.07.26,0,.44.07A2.42,2.42,0,0,1,130.4,186.15Z" style="fill:#ba4d3c"></path><path d="M130.6,186.08l-.2.07-.16,0a1.57,1.57,0,0,1-1.43-.67,12.86,12.86,0,0,0,1.73.08Z" style="fill:#fff"></path><path d="M141.36,187.12s0,0,0,.06h0v.06l0,.13a.67.67,0,0,1-.06.12l-.08.11-.06.06h0a2.53,2.53,0,0,1-1.58.53,2.52,2.52,0,0,1-1.57.54,2.55,2.55,0,0,1-1.62-.41,2.51,2.51,0,0,1-1.62-.4h0a.77.77,0,0,1-.19-.22.25.25,0,0,0,0-.07.19.19,0,0,0,0-.07v-.18a.22.22,0,0,1,0-.08l0-.07a.89.89,0,0,1,.17-.24.72.72,0,0,1-.25-.37v-.19h0a.63.63,0,0,1,.22-.37,2.47,2.47,0,0,1,1.58-.53,2.46,2.46,0,0,1,1.57-.54,2.57,2.57,0,0,1,1.62.4,2.61,2.61,0,0,1,1.61.4.64.64,0,0,1,.25.36.36.36,0,0,1,0,.1.64.64,0,0,1-.23.48.15.15,0,0,1,.06.05l.1.11a.3.3,0,0,1,.06.11A.28.28,0,0,1,141.36,187.12Z" style="fill:#407BFF"></path><path d="M141.36,187.12s0,0,0,.06h0v.06l0,.13a.67.67,0,0,1-.06.12l-.08.11-.06.06h0a2.38,2.38,0,0,1-1.43.52h-.15l-.11.1a2.78,2.78,0,0,1-1.46.44,2.83,2.83,0,0,1-1.5-.32l-.12-.09h-.14a2.43,2.43,0,0,1-1.48-.41h0a.77.77,0,0,1-.19-.22.25.25,0,0,0,0-.07.19.19,0,0,0,0-.07v-.18a.22.22,0,0,1,0-.08l0-.07a.89.89,0,0,1,.17-.24.72.72,0,0,1-.25-.37v-.19h0a.63.63,0,0,1,.22-.37,2.47,2.47,0,0,1,1.58-.53,2.46,2.46,0,0,1,1.57-.54,2.57,2.57,0,0,1,1.62.4,2.61,2.61,0,0,1,1.61.4.64.64,0,0,1,.25.36.36.36,0,0,1,0,.1.64.64,0,0,1-.23.48.15.15,0,0,1,.06.05l.1.11a.3.3,0,0,1,.06.11A.28.28,0,0,1,141.36,187.12Z" style="fill:#fff;opacity:0.2"></path><path d="M134.46,186.62a.37.37,0,0,1,0-.18Z" style="fill:#407BFF"></path><path d="M134.52,187.63a.25.25,0,0,0,0-.07h0v0a.53.53,0,0,1,0-.13h0v.18A.19.19,0,0,1,134.52,187.63Z" style="fill:#407BFF"></path><path d="M134.51,187.3a.22.22,0,0,0,0,.08v.18h0v0a.53.53,0,0,1,0-.13h0s0,0,0,0A.17.17,0,0,1,134.51,187.3Z" style="fill:#407BFF"></path><path d="M141.37,187.18l0,.94a.64.64,0,0,1-.23.47,2.45,2.45,0,0,1-1.44.53h-.14l-.11.09a2.81,2.81,0,0,1-1.47.44,2.7,2.7,0,0,1-1.49-.32l-.12-.08h-.14a2.5,2.5,0,0,1-1.48-.4.61.61,0,0,1-.26-.55l0-.75a.25.25,0,0,1,0,.07l0,.07a.77.77,0,0,0,.19.22h0l.07.05h0l.14.09.06,0,.05,0h0l.09,0,.18.05.18,0h0l.17,0H136a1.08,1.08,0,0,0,.18,0h.18l.12.09.07,0,.15.07.07,0,.09,0,.11,0,.16,0,.2,0,.2,0H138l.19,0h.06l.18,0,.11,0,.1,0,.18,0h0a.75.75,0,0,0,.18-.07l.09,0h0l0,0h0a1.55,1.55,0,0,0,.22-.12l.06,0,.11-.1h.18l.16,0H140l.09,0h.07l.12,0h0l.05,0h0l.23-.08.07,0h0l.09,0,.05,0a1.14,1.14,0,0,0,.3-.21h0l.06-.06.08-.11a.67.67,0,0,0,.06-.12l0-.13Z" style="fill:#407BFF"></path><path d="M134.5,187.56a.19.19,0,0,1,0,.07.25.25,0,0,0,0-.07Z" style="fill:#407BFF"></path><path d="M134.46,186.62a.72.72,0,0,0,.25.37.89.89,0,0,0-.17.24l0,.07a.22.22,0,0,0,0,.08Z" style="fill:#407BFF"></path><path d="M141.32,186.15v.1a.36.36,0,0,0,0-.1Z" style="fill:#407BFF"></path><path d="M136.49,188.41l0,.93-.12-.08h-.14l0-.93h.14Z" style="opacity:0.2"></path><path d="M139.71,188.18l0,.94h-.14l-.11.09,0-.93.11-.1Z" style="opacity:0.2"></path><path d="M134.46,186.62a.72.72,0,0,0,.25.37.89.89,0,0,0-.17.24l0,.07a.22.22,0,0,0,0,.08Z" style="opacity:0.2"></path><path d="M141.1,186.73a.64.64,0,0,0,.23-.48l0,.93s0,0,0-.06a.28.28,0,0,0,0-.12.3.3,0,0,0-.06-.11l-.1-.11A.15.15,0,0,0,141.1,186.73Z" style="fill:#407BFF"></path><path d="M141.33,186.34a.78.78,0,0,1-.22.39.77.77,0,0,1,.19.22s0,.05,0,.07,0,0,0,.07Z" style="opacity:0.2"></path><path d="M141,186.73c0,.68-1.31,1.29-3,1.36s-3.08-.42-3.11-1.11c0,0,0-.06,0-.09.15.63,1.49,1.07,3.09,1s2.89-.62,3-1.27A.38.38,0,0,1,141,186.73Z" style="opacity:0.2"></path><path d="M140.68,186.56v.09c-.14-.58-1.36-1-2.82-.93s-2.64.57-2.72,1.16a.36.36,0,0,1,0-.1c0-.62,1.2-1.17,2.74-1.23S140.66,185.93,140.68,186.56Z" style="opacity:0.2"></path><path d="M140.46,193,138,189.66l2.44-.68-2.6-3.43,3.24-.56,5.2,1.28.44,7.75S144.1,197.37,140.46,193Z" style="fill:#ff8b7b"></path><path d="M135.8,214.35s13.07,16.31,13.11,21.45.25-21.43-2.42-23.65S136,207.72,135.8,214.35Z" style="opacity:0.2;isolation:isolate"></path><path d="M142.06,196c5,6,9.38,12.45,16.75,16.82,3.72,2.21-10.8-6.76-14.6-10a13.44,13.44,0,0,0-7.51-3.44c-7.84-.67-4.92,3.85-4.77,6.9s1.88,5.8,3.87,8.12a34.44,34.44,0,0,0,12,9c2.67,1.21,14.83,5.09,20,.72,3.49-3,4.32-4.85,2.8-8.92-2.8-7.51-12.41-14.81-18.11-19C145.26,190.78,142.71,190.8,142.06,196Z" style="fill:#407BFF"></path><path d="M142.06,196c5,6,9.38,12.45,16.75,16.82,3.72,2.21-10.8-6.76-14.6-10a13.44,13.44,0,0,0-7.51-3.44c-7.84-.67-4.92,3.85-4.77,6.9s1.88,5.8,3.87,8.12a34.44,34.44,0,0,0,12,9c2.67,1.21,14.83,5.09,20,.72,3.49-3,4.32-4.85,2.8-8.92-2.8-7.51-12.41-14.81-18.11-19C145.26,190.78,142.71,190.8,142.06,196Z" style="fill:#fff;opacity:0.1"></path><rect x="54.77" y="299.67" width="9.28" height="0.93" transform="translate(-242.15 351.88) rotate(-88.54)" style="fill:#407BFF"></rect><polygon points="64.29 314.67 60.7 306.87 60.36 307.03 60.34 306.93 59.96 307.03 59.95 307 59.32 307.05 58.63 306.97 58.63 306.99 58.25 306.87 58.23 306.95 57.89 306.78 53.98 314.43 54.81 314.85 57.24 310.11 55.85 314.55 56.74 314.83 58.29 309.88 57.72 314.68 58.65 314.79 59.23 309.82 59.62 314.81 60.55 314.74 60.18 309.95 61.52 314.94 62.43 314.7 61.23 310.24 63.45 315.06 64.29 314.67" style="fill:#407BFF"></polygon><rect x="54.77" y="299.67" width="9.28" height="0.93" transform="translate(-242.15 351.88) rotate(-88.54)" style="fill:#407BFF"></rect><polygon points="64.29 314.67 60.7 306.87 60.36 307.03 60.34 306.93 59.96 307.03 59.95 307 59.32 307.05 58.63 306.97 58.63 306.99 58.25 306.87 58.23 306.95 57.89 306.78 53.98 314.43 54.81 314.85 57.24 310.11 55.85 314.55 56.74 314.83 58.29 309.88 57.72 314.68 58.65 314.79 59.23 309.82 59.62 314.81 60.55 314.74 60.18 309.95 61.52 314.94 62.43 314.7 61.23 310.24 63.45 315.06 64.29 314.67" style="fill:#407BFF"></polygon><path d="M62.22,305.09a2.94,2.94,0,1,1-2.86-3A2.93,2.93,0,0,1,62.22,305.09Z" style="fill:#407BFF"></path><path d="M62.22,305.09a2.94,2.94,0,1,1-2.86-3A2.93,2.93,0,0,1,62.22,305.09Z" style="opacity:0.2"></path><polygon points="71.44 260.32 47.8 260.46 43.21 257.32 75.99 257.13 71.44 260.32" style="fill:#407BFF"></polygon><polygon points="71.44 260.32 47.8 260.46 43.24 263.64 76.03 263.45 71.44 260.32" style="fill:#407BFF"></polygon><polygon points="71.48 266.79 47.83 266.92 43.24 263.79 76.03 263.6 71.48 266.79" style="fill:#407BFF"></polygon><polygon points="71.48 266.79 47.83 266.92 43.28 270.11 76.07 269.92 71.48 266.79" style="fill:#407BFF"></polygon><polygon points="71.51 273.25 47.87 273.39 43.28 270.26 76.07 270.07 71.51 273.25" style="fill:#407BFF"></polygon><polygon points="71.51 273.25 47.87 273.39 43.32 276.57 76.1 276.39 71.51 273.25" style="fill:#407BFF"></polygon><polygon points="71.55 279.72 47.91 279.86 43.32 276.73 76.1 276.54 71.55 279.72" style="fill:#407BFF"></polygon><polygon points="71.55 279.72 47.91 279.86 43.36 283.04 76.14 282.85 71.55 279.72" style="fill:#407BFF"></polygon><polygon points="71.59 286.19 47.95 286.32 43.36 283.19 76.14 283 71.59 286.19" style="fill:#407BFF"></polygon><polygon points="71.59 286.19 47.95 286.32 43.39 289.51 76.18 289.32 71.59 286.19" style="fill:#407BFF"></polygon><polygon points="71.63 292.65 47.98 292.79 43.4 289.66 76.18 289.47 71.63 292.65" style="fill:#407BFF"></polygon><polygon points="71.63 292.65 47.98 292.79 43.43 295.98 76.22 295.79 71.63 292.65" style="fill:#407BFF"></polygon><polygon points="48.48 259.43 47.85 258.74 60.52 247.13 71.61 258.71 70.93 259.36 60.47 248.43 48.48 259.43" style="fill:#407BFF"></polygon><rect x="60.05" y="234.96" width="0.93" height="13.48" style="fill:#407BFF"></rect><polygon points="71.44 260.32 47.8 260.46 43.24 263.64 76.03 263.45 71.44 260.32" style="fill:#fff;opacity:0.2"></polygon><polygon points="71.44 266.61 47.8 266.74 43.24 269.93 76.03 269.74 71.44 266.61" style="fill:#fff;opacity:0.2"></polygon><polygon points="71.44 273.25 47.8 273.39 43.24 276.57 76.03 276.39 71.44 273.25" style="fill:#fff;opacity:0.2"></polygon><polygon points="71.44 279.72 47.8 279.86 43.24 283.04 76.03 282.85 71.44 279.72" style="fill:#fff;opacity:0.2"></polygon><polygon points="71.44 286.19 47.8 286.32 43.24 289.51 76.03 289.32 71.44 286.19" style="fill:#fff;opacity:0.2"></polygon><polygon points="71.44 292.65 47.8 292.79 43.24 295.98 76.03 295.79 71.44 292.65" style="fill:#fff;opacity:0.2"></polygon></g><g id="freepik--character-2--inject-9"><rect x="236.09" y="358.69" width="9.28" height="0.93" transform="translate(-124.45 590.65) rotate(-88.54)" style="fill:#407BFF"></rect><polygon points="245.61 373.69 242.03 365.89 241.68 366.04 241.66 365.95 241.28 366.05 241.28 366.02 240.64 366.07 239.95 365.99 239.95 366 239.57 365.89 239.55 365.97 239.21 365.8 235.3 373.45 236.14 373.87 238.56 369.12 237.17 373.56 238.06 373.84 239.61 368.9 239.04 373.69 239.97 373.8 240.56 368.84 240.94 373.83 241.87 373.76 241.5 368.96 242.84 373.96 243.75 373.72 242.55 369.25 244.77 374.08 245.61 373.69" style="fill:#407BFF"></polygon><rect x="236.09" y="358.69" width="9.28" height="0.93" transform="translate(-124.45 590.65) rotate(-88.54)" style="fill:#407BFF"></rect><polygon points="245.61 373.69 242.03 365.89 241.68 366.04 241.66 365.95 241.28 366.05 241.28 366.02 240.64 366.07 239.95 365.99 239.95 366 239.57 365.89 239.55 365.97 239.21 365.8 235.3 373.45 236.14 373.87 238.56 369.12 237.17 373.56 238.06 373.84 239.61 368.9 239.04 373.69 239.97 373.8 240.56 368.84 240.94 373.83 241.87 373.76 241.5 368.96 242.84 373.96 243.75 373.72 242.55 369.25 244.77 374.08 245.61 373.69" style="fill:#407BFF"></polygon><path d="M243.55,364.11a2.94,2.94,0,1,1-2.87-3A2.95,2.95,0,0,1,243.55,364.11Z" style="fill:#407BFF"></path><path d="M243.55,364.11a2.94,2.94,0,1,1-2.87-3A2.95,2.95,0,0,1,243.55,364.11Z" style="opacity:0.2"></path><polygon points="252.76 319.34 229.12 319.47 224.53 316.34 257.31 316.15 252.76 319.34" style="fill:#407BFF"></polygon><polygon points="252.76 319.34 229.12 319.47 224.56 322.66 257.35 322.47 252.76 319.34" style="fill:#407BFF"></polygon><polygon points="252.8 325.81 229.16 325.94 224.57 322.81 257.35 322.62 252.8 325.81" style="fill:#407BFF"></polygon><polygon points="252.8 325.81 229.16 325.94 224.6 329.13 257.39 328.94 252.8 325.81" style="fill:#407BFF"></polygon><polygon points="252.84 332.27 229.19 332.41 224.6 329.28 257.39 329.09 252.84 332.27" style="fill:#407BFF"></polygon><polygon points="252.84 332.27 229.19 332.41 224.64 335.59 257.42 335.4 252.84 332.27" style="fill:#407BFF"></polygon><polygon points="252.87 338.74 229.23 338.88 224.64 335.74 257.42 335.55 252.87 338.74" style="fill:#407BFF"></polygon><polygon points="252.87 338.74 229.23 338.88 224.68 342.06 257.46 341.87 252.87 338.74" style="fill:#407BFF"></polygon><polygon points="252.91 345.2 229.27 345.34 224.68 342.21 257.46 342.02 252.91 345.2" style="fill:#407BFF"></polygon><polygon points="252.91 345.2 229.27 345.34 224.71 348.53 257.5 348.34 252.91 345.2" style="fill:#407BFF"></polygon><polygon points="252.95 351.67 229.3 351.81 224.72 348.68 257.5 348.49 252.95 351.67" style="fill:#407BFF"></polygon><polygon points="252.95 351.67 229.3 351.81 224.75 354.99 257.54 354.81 252.95 351.67" style="fill:#407BFF"></polygon><polygon points="229.8 318.45 229.17 317.76 241.84 306.15 252.93 317.73 252.25 318.38 241.79 307.45 229.8 318.45" style="fill:#407BFF"></polygon><rect x="241.37" y="293.97" width="0.93" height="13.48" style="fill:#407BFF"></rect><polygon points="252.76 319.34 229.12 319.47 224.56 322.66 257.35 322.47 252.76 319.34" style="fill:#fff;opacity:0.2"></polygon><polygon points="252.76 325.62 229.12 325.76 224.56 328.94 257.35 328.76 252.76 325.62" style="fill:#fff;opacity:0.2"></polygon><polygon points="252.76 332.27 229.12 332.41 224.56 335.59 257.35 335.4 252.76 332.27" style="fill:#fff;opacity:0.2"></polygon><polygon points="252.76 338.74 229.12 338.88 224.56 342.06 257.35 341.87 252.76 338.74" style="fill:#fff;opacity:0.2"></polygon><polygon points="252.76 345.21 229.12 345.34 224.56 348.53 257.35 348.34 252.76 345.21" style="fill:#fff;opacity:0.2"></polygon><polygon points="252.76 351.67 229.12 351.81 224.56 354.99 257.35 354.81 252.76 351.67" style="fill:#fff;opacity:0.2"></polygon><path d="M177.06,281.34a6.14,6.14,0,0,0,1.38-.65c15.29-11.21,32.23-29.38,31.78-32.15-.14-.92-3.05-2-3.05-2-.23,1.38-11.55,8-14.06,10.86a54.6,54.6,0,0,1-11.57,11.08c-1.24.86-2.92,1.53-4.23,2.31l-1.9,1.11-.94.53-.82.44Z" style="fill:#ff8b7b"></path><path d="M177.06,281.34a6.14,6.14,0,0,0,1.38-.65c15.29-11.21,32.23-29.38,31.78-32.15-.14-.92-3.05-2-3.05-2-.23,1.38-11.55,8-14.06,10.86a54.6,54.6,0,0,1-11.57,11.08c-1.24.86-2.92,1.53-4.23,2.31l-1.9,1.11-.94.53-.82.44Z" style="fill:#ff8b7b"></path><path d="M207.17,246.49l2.05-5.38,7.53,3.23s-2.47,4.71-6.74,5.23Z" style="fill:#ff8b7b"></path><path d="M210.78,240.17a3,3,0,0,1,2.55-.27l3,1a2.27,2.27,0,0,1,.52.4,2.24,2.24,0,0,1-.78,3.56h0l-6.82-3.79Z" style="fill:#ff8b7b"></path><path d="M216.72,240.85l2.95-3.66a1.08,1.08,0,0,0,.06-1.27c-.31-.29-.75,0-1,.3l-4.87,4.95,1.75,1Z" style="fill:#ff8b7b"></path><path d="M216.72,240.85l-.2.23a1.66,1.66,0,0,1,.3.25,2.21,2.21,0,0,1-.12,3.11v0c-.42.73-2.81,4.64-6.68,5.11l0,0c-2.11,4.74-17.52,20.87-31.54,31.15a6.14,6.14,0,0,1-1.38.65l-3.41-8.52.82-.44.94-.53,1.9-1.11c1.31-.78,3-1.45,4.23-2.31a54.6,54.6,0,0,0,11.57-11.08c2.51-2.89,13.83-9.48,14.06-10.86l2.05-5.38.08,0-.08,0,1.56-.93a3,3,0,0,1,2.55-.27l1.3.45,4.06-4.13c.29-.3.73-.59,1-.3a1.08,1.08,0,0,1-.06,1.27Z" style="opacity:0.1"></path><path d="M195.32,245.21c.25.73.84,1.2,1.32,1s.68-.89.42-1.62-.83-1.21-1.32-1.05S195.07,244.46,195.32,245.21Z" style="fill:#263238"></path><path d="M195.53,245.91a19.19,19.19,0,0,0,4.54,2.46,3,3,0,0,1-1.87,1.75Z" style="fill:#ff5652"></path><path d="M191.56,244.22a.41.41,0,0,0,.22-.17,3.65,3.65,0,0,1,2.9-1.6.47.47,0,0,0,.47-.45.44.44,0,0,0-.43-.47h0a4.54,4.54,0,0,0-3.65,2,.44.44,0,0,0,.09.62h0A.45.45,0,0,0,191.56,244.22Z" style="fill:#263238"></path><path d="M184.12,257.5c.21,4.91-.42,10.58-3.79,12.83,0,0,1.31,5.3,12.84,6.18,12.68,1,6.46-4.71,6.46-4.71-5.51-2.47-7.69-6.83-6.17-10.7l-5.94-5.28a2.08,2.08,0,0,0-2.93.28A2,2,0,0,0,184.12,257.5Z" style="fill:#ff8b7b"></path><polygon points="184.78 415.01 191.77 415.43 193.42 399.28 186.43 398.87 184.78 415.01" style="fill:#ff8b7b"></polygon><path d="M192.42,410.84l-7.62-.46a.63.63,0,0,0-.63.45L182.42,417a1,1,0,0,0,.7,1.27,1.26,1.26,0,0,0,.27,0c2.79.12,5.18.11,8.64.3,4,.25,3,.66,7.73,1,2.86.2,3.62-3,2.37-3.25-5.51-1-6-2.74-8-4.86A2.43,2.43,0,0,0,192.42,410.84Z" style="fill:#263238"></path><path d="M206,287.24s-.57,1.9-.79,2.73c-.27,1-.51,2-.72,3.09-.4,2.11-.88,30.83-.88,30.83l-33.37-2.49c2.32-13.5,2.3-19.13.3-37.78-.7-6.5,1.07-13.43,4.6-13.81l.24,0c.7-.05,1.42-.09,2.16-.11,1-.05,2-.07,3-.07h.72c1.81,0,3.62,0,5.43.11,3.48.15,7,.42,10.45.83l.44.07h0a.39.39,0,0,1,.14,0c.52.14.63.3.74.48a.22.22,0,0,1,.05.08c.13.2.31.41,1,.58l.2.06a6,6,0,0,1,1.12.4,7.63,7.63,0,0,1,3.44,3.06C204.82,276.28,206.17,286.51,206,287.24Z" style="fill:#407BFF"></path><path d="M199.68,279.45c-6,.21-4.85,4.84-2.16,10.26,3.63,7.29,6.17,15.48,6.2,18.87,0,5.14,1.24-21.48-.31-28.52C203.19,279.07,201.16,279.39,199.68,279.45Z" style="opacity:0.2;isolation:isolate"></path><path d="M206.69,287.79c-.89,2.91-1.4,3.35-2,5.37-.13-.15-.24-.3-.36-.45-.56-.74-1.12-1.48-1.66-2.23-.28,1-.52,2-.72,3.08a52.89,52.89,0,0,1-3.5-7.31,25.92,25.92,0,0,1-1-4.06c-.11-.65-.21-1.36-.29-2.13l6.91,5.6,1,.78Z" style="opacity:0.30000000000000004;isolation:isolate"></path><path d="M236,299.94c-.9.33-6.67,2.76-18.24,3.87-4,.19-9.41-6.44-10-7.08-1.06-1.16-2.09-2.34-3.06-3.57-.13-.15-.24-.3-.36-.45-.56-.74-1.12-1.48-1.66-2.23s-.88-1.21-1.29-1.82l-.14-.21q-1.47-2.16-2.79-4.46c-.34-.59-.67-1.19-1-1.8l-.27-.52c-.42-.81-.77-1.54-1.21-2.51l8.28-3.83,1.36-.63,1,1.91,1.12,2c.72,1.26,1.46,2.52,2.24,3.75l.13.23c1.65,2.63,3.39,5.19,5.26,7.62.47.6.93,1.23,1.43,1.81l.74.9.34.43.21.26a34.6,34.6,0,0,0,16,2l.31,0Z" style="fill:#ff8b7b"></path><path d="M234.09,295.66l4.11-4,5.19,5.95s-3.29,3.67-7.38,2.35Z" style="fill:#ff8b7b"></path><polygon points="243.93 289.74 245.98 296.09 242.81 297.93 238.2 291.63 243.93 289.74" style="fill:#ff8b7b"></polygon><path d="M193.57,278c-1.4,8.66,9.82,17.13,9.82,17.13l11.17-5.92L211.33,280a14.12,14.12,0,0,0-6.33-8.45C199.75,268.68,194.69,270.85,193.57,278Z" style="fill:#407BFF"></path><path d="M193.57,278c-1.4,8.66,9.82,17.13,9.82,17.13l11.17-5.92L211.33,280a14.12,14.12,0,0,0-6.33-8.45C199.75,268.68,194.69,270.85,193.57,278Z" style="fill:#fff;opacity:0.1"></path><path d="M196.78,261.47h0a11,11,0,0,1-12.29,2.78c-4.87-2.12-6.07-6.09-8.75-12.5s2.76-13.89,10.92-13.72,12.47,9.62,12.88,16.1A9.88,9.88,0,0,1,196.78,261.47Z" style="fill:#ff8b7b"></path><path d="M199,251.12h0a10.62,10.62,0,0,1,.23,3.85l0,.16-.13.06-.19.08-.17,0a1.57,1.57,0,0,1-1.48-.55,4,4,0,0,1-.71-1h0a2.9,2.9,0,0,1-.23-.57,2.7,2.7,0,0,1-.1-1.15,1.18,1.18,0,0,1,0-.2c.23-.74,1-.88,1.68-.87h0l.35,0h.08a2.73,2.73,0,0,1,.37.07Z" style="fill:#263238"></path><path d="M198.76,251.06v.81c-2,.4-2.52,0-2.5,0,.23-.74,1-.88,1.68-.87h0l.35,0h.08A2.73,2.73,0,0,1,198.76,251.06Z" style="fill:#fff"></path><path d="M198.92,255.27c-1.14.38-2-.73-2.36-1.51h0c0-.08.25,0,.44,0A2.43,2.43,0,0,1,198.92,255.27Z" style="fill:#ba4d3c"></path><path d="M199.11,255.19l-.19.08-.17,0a1.57,1.57,0,0,1-1.48-.55,13,13,0,0,0,1.74-.07Z" style="fill:#fff"></path><path d="M192.22,251.59c2.63,3.77-1.45,9.55-6.09,11.23-8,2.88-15.7-8.84-14.59-13.71s6.77-9.63,9.62-10.34S188.86,243.54,192.22,251.59Z" style="fill:#263238"></path><path d="M201.1,321.43c4.73,12.65.92,37.1-.3,49.93-1.28,12-.35,18.31-3.6,28-.64,1.91-3.64,4-4.43,6.24L186,404.7a27.64,27.64,0,0,1-1.8-7.05c-.39-7,.84-17.87,4-27.9-5.85-31.73-7.63-47.45-7.63-47.45Z" style="fill:#263238"></path><polygon points="139.81 399.64 144.91 404.45 156.54 393.14 151.45 388.33 139.81 399.64" style="fill:#ff8b7b"></polygon><path d="M148.36,401.35l-5.56-5.24a.6.6,0,0,0-.76-.06l-5.28,3.55a1,1,0,0,0-.28,1.4.74.74,0,0,0,.16.19c2,1.86,5.05,4.48,7.57,6.85,2.95,2.78.87,1.13,4.36,4.38,2.1,2,4.67.4,4-.61-3.16-4.63-3.1-6-3.28-8.91A2.52,2.52,0,0,0,148.36,401.35Z" style="fill:#263238"></path><path d="M192,324.44s-6.1,29.38-13.2,48.6a55.92,55.92,0,0,1-17.84,21c-2.72,1.8-8.08,2.7-8.08,2.7l-5-4.89a11.31,11.31,0,0,1,2.77-7.5,86.34,86.34,0,0,1,6.79-7.74c5.85-6.13,7.85-4.61,8.42-8.24A360.94,360.94,0,0,0,170,331.85a7.66,7.66,0,0,1,7.49-7.15Z" style="fill:#263238"></path><path d="M197.52,270.62l-.44-.07c-3.48-.41-7-.68-10.45-.83-1.81-.07-3.62-.1-5.43-.11h-.72c.2-1.76.59-4.58,1.06-4.26.68.48,10-2.09,13.38.51A6.74,6.74,0,0,1,197.52,270.62Z" style="fill:#407BFF"></path><path d="M171.71,319.3s-6.62,6.6-2.48,19.25h0c7,2,19.33,2.06,25.82,1.91,2.6-.06,4.86-11.55,4.86-11.55l4.79,11.25s-.68-17.5-1.8-19.23Z" style="fill:#407BFF"></path><path d="M196.75,261.49a11.6,11.6,0,0,1-3.75,2.69l-.43-3.75A4.45,4.45,0,0,0,196.75,261.49Z" style="opacity:0.2"></path><path d="M193.19,245c0,.26.76,4.58.76,4.58l-1.55-1.76c-1.31,2.15-4.37,4.7-10.23,6.53-3.18,1-6.61,2.76-9.26.74a8,8,0,0,1-2.72-6.25,12.46,12.46,0,0,1,3.22-8.46c4.21-4.61,12.4-7.65,17.56-4.1,2.65,1.82,4.4,7.48,3.45,10.55A3,3,0,0,0,193.19,245Z" style="fill:#263238"></path><path d="M171.59,248.41s-3.15-.91-2.77,3.5A8.9,8.9,0,0,1,171.59,248.41Z" style="fill:#263238"></path><path d="M188.38,249.62a6.85,6.85,0,0,0,3.25,2.95c1.82.77,2.7-.63,2.16-2.35-.48-1.55-2-3.82-3.85-3.86S187.52,248,188.38,249.62Z" style="fill:#ff8b7b"></path></g><g id="freepik--character-3--inject-9"><path d="M287.57,301.15s-.73,3.53-1.88,8.91a.36.36,0,0,0,0,.11c-.83,3.82-1.85,8.57-3,13.63-2.16,9.77-4.68,20.74-6.72,28.57-2.86,10.9-17.58,47.46-17.58,47.46l-11.81-3.58s13.37-41.51,15.34-54.12c2.6-16.73,1-41,4.65-59.17q.51-2.55,1.17-4.94s20.06,11.56,21.24,12.59S287.57,301.15,287.57,301.15Z" style="fill:#263238"></path><path d="M281.83,294.14s1.78,7.12,3.84,16c-.83,3.82-2.94-7.43-15.94-22.52C274.54,292.57,281.83,294.14,281.83,294.14Z" style="opacity:0.30000000000000004;isolation:isolate"></path><path d="M280.74,290.72l8.53,2.77-3.19,15S287.66,294.13,280.74,290.72Z" style="opacity:0.30000000000000004"></path><polygon points="248.97 395.72 246.85 402.42 252.57 404.99 255.41 397.87 248.97 395.72" style="fill:#ff8b7b"></polygon><polygon points="247.71 399.69 253.75 402.02 254.56 400 248.21 398.13 247.71 399.69" style="opacity:0.2"></polygon><polygon points="246.72 392.58 261.15 396.53 258.54 401.17 245.91 397.45 246.72 392.58" style="fill:#407BFF"></polygon><path d="M253.8,405.9a.18.18,0,0,1-.08-.18.17.17,0,0,1,.14-.14c.13,0,3-.44,4,.31a.9.9,0,0,1,.36.57.65.65,0,0,1-.26.7,3.07,3.07,0,0,1-2.18-.26A12.35,12.35,0,0,1,253.8,405.9Zm.6,0c1.19.65,2.9,1.3,3.38,1,.07,0,.15-.12.11-.37a.46.46,0,0,0-.23-.34,1,1,0,0,0-.29-.16A7.81,7.81,0,0,0,254.4,405.89Z" style="fill:#407BFF"></path><path d="M253.72,405.86a.17.17,0,0,1,0-.17c.05-.09.94-1.83,2.07-2.2a1.29,1.29,0,0,1,1,.07c.42.22.47.5.42.69-.16.81-2.35,1.64-3.3,1.68l-.07,0A.14.14,0,0,1,253.72,405.86Zm2.82-2a.91.91,0,0,0-.63,0,4,4,0,0,0-1.7,1.71c1-.16,2.54-.89,2.67-1.36,0-.05,0-.17-.24-.31l-.1,0Z" style="fill:#407BFF"></path><path d="M253.48,404.69l-7.36-2.89a.65.65,0,0,0-.76.24l-3.67,5.46A1.05,1.05,0,0,0,242,409a.72.72,0,0,0,.19.11c2.67,1,5.09,1.77,8.39,3.07,3.89,1.53,2.72,1.61,7.28,3.47,2.74,1.12,4.48-1.82,3.37-2.44-5.09-2.77-5-4.6-6.33-7.33A2.52,2.52,0,0,0,253.48,404.69Z" style="fill:#263238"></path><path d="M286.27,182.1c.19.5.1,1-.23,1.13s-.77-.18-.94-.67-.1-1,.23-1.12S286.07,181.61,286.27,182.1Z" style="fill:#263238"></path><path d="M285.18,184l3.78,2.34a3.66,3.66,0,0,1-3,1.29Z" style="fill:#ba4d3c"></path><path d="M271.76,207.32s4.21-1.7,1.82-9.68c0,0,3.48-3,6.77-1.39s-.06,8.56,3.84,9.95S271.76,207.32,271.76,207.32Z" style="fill:#ff8b7b"></path><path d="M281.86,198.73l-3,.93s1.31,2.34,3.21,2.84C282,201.24,282.05,199.89,281.86,198.73Z" style="opacity:0.2"></path><path d="M266.39,187.65c2.29,6.67,3.12,9.55,7.51,12.09,6.61,3.81,14.32-.45,14.07-7.68-.23-6.51-3.93-16.31-11.33-17.21a9.65,9.65,0,0,0-10.25,12.8Z" style="fill:#ff8b7b"></path><path d="M265.52,190.73s-2.83-2.9-5.11,2.09A11.1,11.1,0,0,1,265.52,190.73Z" style="fill:#263238"></path><path d="M284.27,177.36a.28.28,0,0,0-.14.22,2.17,2.17,0,0,1-1,1.73.28.28,0,0,0-.11.37.27.27,0,0,0,.38.11,2.68,2.68,0,0,0,1.27-2.17.28.28,0,0,0-.25-.3h0A.29.29,0,0,0,284.27,177.36Z" style="fill:#263238"></path><path d="M270.19,208.29l.5-2.17a2.22,2.22,0,0,1,2-1.71c3.74-.23,12.68-.67,14.2.4a5.78,5.78,0,0,1,2.29,3.35Z" style="fill:#407BFF"></path><path d="M264.61,227.7,256.46,237a12.7,12.7,0,0,0-3.07,9.9c1,8.1,2.16,19.63,2.16,19.63-1.8,2.38-6.19,1.7-6.19,1.7a62.2,62.2,0,0,1-4.28-28.13c.85-8.77,12.09-26,20.09-30.89a15.73,15.73,0,0,1,4.21-1.77l1.58-.18-5.6,20.84Z" style="fill:#407BFF"></path><g style="opacity:0.1"><path d="M264.61,227.7,256.46,237a12.7,12.7,0,0,0-3.07,9.9c1,8.1,2.16,19.63,2.16,19.63-1.8,2.38-6.19,1.7-6.19,1.7a62.2,62.2,0,0,1-4.28-28.13c.85-8.77,12.09-26,20.09-30.89a15.73,15.73,0,0,1,4.21-1.77l1.58-.18-5.6,20.84Z"></path></g><path d="M302.51,231.59c.77-4.17-.46-8.09-1.94-11.56-.65-1.5-.89-3-1.43-4.15-5.36-11.71-16.41-9.31-27-8.79s-10.61,5.84-7.84,19,7.41,34.34,7.41,34.34l29.92,1.93S299.9,245.69,302.51,231.59Z" style="fill:#407BFF"></path><path d="M282.3,188s3.9-5.37,0-9.06c0,0,4.59-6.66-2.61-8.09-11.56-2.3-19.26,2.69-24.94,13.55-5.94,11.38,1.8,18.1,13.32,20.94,15.39,3.81,14.52-8.92,12.44-14.47C280.51,190.87,281.8,190.48,282.3,188Z" style="fill:#263238"></path><path d="M280.51,185.33a5.42,5.42,0,0,1,2.76,3.11c.6,1.82-1,2.84-2.76,2.43-1.6-.37-3.81-1.77-3.66-3.64A2.45,2.45,0,0,1,280.51,185.33Z" style="fill:#ff8b7b"></path><path d="M278.42,190.5s4.53.41,7,3.95-3.08,8.52-8.45,6.34S278.42,190.5,278.42,190.5Z" style="fill:#263238"></path><path d="M282.51,191.62a1.13,1.13,0,1,1-2.25,0,1.13,1.13,0,0,1,2.25,0Z" style="fill:#407BFF"></path><polygon points="295.61 401.17 295.75 407.63 301.99 408.23 302.36 401.17 295.61 401.17" style="fill:#ff8b7b"></polygon><polygon points="302.2 404.17 302.3 402.48 295.65 402.75 295.69 404.72 302.2 404.17" style="opacity:0.2"></polygon><path d="M304.66,398.54l-11.31,1.34s.16-43.23-1.69-59.54c-.75-6.66-3.55-19.56-6-30a.59.59,0,0,1,0-.13c-2.06-8.91-3.84-16-3.84-16s-7.29-1.57-12.1-6.49a14.08,14.08,0,0,1-3.15-4.69,12.12,12.12,0,0,1-.74-2.46c-2-10.22,5.85-20.07,5.85-20.07l29.93,1.93s1.88,19.23,2.32,25.67c.88,13,4.52,33.13,4.62,46.15C308.69,351.79,304.66,398.54,304.66,398.54Z" style="fill:#263238"></path><polygon points="291.42 398.02 306.36 397.11 305.38 402.35 292.22 402.89 291.42 398.02" style="fill:#407BFF"></polygon><path d="M303.34,408.68a.18.18,0,0,1-.13-.15.17.17,0,0,1,.09-.17c.11-.06,2.69-1.4,3.89-1a.84.84,0,0,1,.52.42.65.65,0,0,1,0,.74,3,3,0,0,1-2.15.47A12.62,12.62,0,0,1,303.34,408.68Zm.57-.21c1.34.22,3.16.28,3.51-.18.06-.05.1-.15,0-.37a.51.51,0,0,0-.33-.26,1.26,1.26,0,0,0-.33-.05A7.87,7.87,0,0,0,303.91,408.47Z" style="fill:#407BFF"></path><path d="M303.25,408.67a.17.17,0,0,1-.07-.16c0-.09.28-2,1.24-2.76a1.27,1.27,0,0,1,1-.25c.47.06.61.31.62.5.12.82-1.68,2.32-2.56,2.67h-.07A.25.25,0,0,1,303.25,408.67Zm2-2.85a.93.93,0,0,0-.6.19,4.06,4.06,0,0,0-1,2.18c.92-.5,2.11-1.68,2.09-2.17,0,0,0-.17-.34-.21Z" style="fill:#407BFF"></path><path d="M302.64,407.64l-7.89-.31a.62.62,0,0,0-.64.47l-1.68,6.36a1.05,1.05,0,0,0,.74,1.3l.22,0c2.85.06,5.39,0,8.93.15,4.18.17,3.1.62,8,.89,3,.15,3.64-3.19,2.39-3.41-5.72-.95-6.25-2.71-8.38-4.85A2.53,2.53,0,0,0,302.64,407.64Z" style="fill:#263238"></path><path d="M285.44,225.13c1.49,4.61,4.88,8.3,8.17,11.84q-.18-7.77-.35-15.56c0-1.72,6.42-3.9,5.88-5.53-1.42-4.33-11.16-4.14-13.17-.25A12.75,12.75,0,0,0,285.44,225.13Z" style="opacity:0.2;isolation:isolate"></path><path d="M320,258.66c.09-.29,9.05-1.83,9.05-1.83l-3.73,6.23-4.48.83S318.83,262.63,320,258.66Z" style="fill:#ff8b7b"></path><path d="M329.08,256.83l5,3-4.84,4.61-3.93-1.4S325.54,258.23,329.08,256.83Z" style="fill:#ff8b7b"></path><path d="M286.47,216c.42,5,1.12,9.82,2,14.7a120.3,120.3,0,0,0,3.65,14.57c.39,1.21.84,2.43,1.3,3.64a13.16,13.16,0,0,0,1.16,2.46,13.74,13.74,0,0,0,1.64,2.17,27.06,27.06,0,0,0,7.2,5.27,59.18,59.18,0,0,0,15,5.35c1.57.35,1-1.07,1.35-2.57.3-1.2.45-2.72-.67-3.33l1.3.71a102.54,102.54,0,0,1-12-7.42,20.18,20.18,0,0,1-4.24-4.06,5.63,5.63,0,0,1-.46-.83,1.4,1.4,0,0,1-.09-.29l-.16-.58c-.31-1.07-.62-2.15-.87-3.25-1.09-4.4-1.89-9-2.59-13.6s-1.35-9.32-1.87-13.87l-.05-.08a5.77,5.77,0,0,0-6.37-5,5.66,5.66,0,0,0-5.26,6.08Z" style="fill:#407BFF"></path><path d="M286.47,216c.42,5,1.12,9.82,2,14.7a120.3,120.3,0,0,0,3.65,14.57c.39,1.21.84,2.43,1.3,3.64a13.16,13.16,0,0,0,1.16,2.46,13.74,13.74,0,0,0,1.64,2.17,27.06,27.06,0,0,0,7.2,5.27,59.18,59.18,0,0,0,15,5.35c1.57.35,1-1.07,1.35-2.57.3-1.2.45-2.72-.67-3.33l-1.51-.83a61.36,61.36,0,0,1-9.2-5.88,20.18,20.18,0,0,1-4.24-4.06,5.63,5.63,0,0,1-.46-.83,1.4,1.4,0,0,1-.09-.29l-.16-.58c-.31-1.07-.62-2.15-.87-3.25-1.09-4.4-1.89-9-2.59-13.6s-1.35-9.32-1.87-13.87l-.05-.08a5.77,5.77,0,0,0-6.37-5,5.66,5.66,0,0,0-5.26,6.08Z" style="fill:#fff;opacity:0.1"></path><polygon points="316.78 256.22 315.99 266.32 320.23 264.9 320.4 255.79 316.78 256.22" style="fill:#407BFF"></polygon><polygon points="316.78 256.22 315.99 266.32 320.23 264.9 320.4 255.79 316.78 256.22" style="fill:#fff;opacity:0.5"></polygon><path d="M254.87,268l2.89,3.1a1,1,0,0,1,.22.35l1.7,4.79a1,1,0,0,1,0,.79l-.83,1.69a1,1,0,0,1-.71.55l-5.87,1.2a1,1,0,0,1-1.21-.81l-1.14-6.31a1.15,1.15,0,0,1,0-.37l.79-4.05a1,1,0,0,1,.82-.8l2.46-.44A1,1,0,0,1,254.87,268Z" style="fill:#ff8b7b"></path><polygon points="257.37 266.37 248.14 270.55 248.02 266.09 256.53 262.82 257.37 266.37" style="fill:#407BFF"></polygon><polygon points="257.37 266.37 248.14 270.55 248.02 266.09 256.53 262.82 257.37 266.37" style="fill:#fff;opacity:0.5"></polygon></g><g id="freepik--Stars--inject-9"><polygon points="355.69 138.66 359.03 140.49 355.69 142.31 353.86 145.66 352.03 142.31 348.69 140.49 352.03 138.66 353.86 135.32 355.69 138.66" style="fill:#407BFF"></polygon><polygon points="368.34 134.07 370 134.98 368.34 135.89 367.43 137.56 366.51 135.89 364.85 134.98 366.51 134.07 367.43 132.4 368.34 134.07" style="fill:#407BFF"></polygon><g style="opacity:0.8"><polygon points="355.69 138.66 359.03 140.49 355.69 142.31 353.86 145.66 352.03 142.31 348.69 140.49 352.03 138.66 353.86 135.32 355.69 138.66" style="fill:#fff"></polygon><polygon points="368.34 134.07 370 134.98 368.34 135.89 367.43 137.56 366.51 135.89 364.85 134.98 366.51 134.07 367.43 132.4 368.34 134.07" style="fill:#fff"></polygon></g><polygon points="293.11 120.38 295.18 121.51 293.11 122.65 291.97 124.72 290.84 122.65 288.76 121.51 290.84 120.38 291.97 118.3 293.11 120.38" style="fill:#407BFF"></polygon><g style="opacity:0.8"><polygon points="293.11 120.38 295.18 121.51 293.11 122.65 291.97 124.72 290.84 122.65 288.76 121.51 290.84 120.38 291.97 118.3 293.11 120.38" style="fill:#fff"></polygon></g><polygon points="350.7 82.97 352.77 84.1 350.7 85.24 349.56 87.31 348.43 85.24 346.36 84.1 348.43 82.97 349.56 80.89 350.7 82.97" style="fill:#407BFF"></polygon><g style="opacity:0.8"><polygon points="350.7 82.97 352.77 84.1 350.7 85.24 349.56 87.31 348.43 85.24 346.36 84.1 348.43 82.97 349.56 80.89 350.7 82.97" style="fill:#fff"></polygon></g><polygon points="403.57 165.63 405.64 166.76 403.57 167.9 402.43 169.97 401.3 167.9 399.22 166.76 401.3 165.63 402.43 163.55 403.57 165.63" style="fill:#407BFF"></polygon><g style="opacity:0.8"><polygon points="403.57 165.63 405.64 166.76 403.57 167.9 402.43 169.97 401.3 167.9 399.22 166.76 401.3 165.63 402.43 163.55 403.57 165.63" style="fill:#fff"></polygon></g></g></svg>